<svg width="20" height="19" viewBox="0 0 20 19" fill="none" xmlns="http://www.w3.org/2000/svg">
<path d="M0.00104232 0C6.66302 0 13.325 0 20 0C20 0.390869 20 0.770794 20 1.16531C19.6091 1.16531 19.2209 1.16531 18.8107 1.16531C18.8107 1.95018 18.8107 2.72097 18.8107 3.51313C18.4099 3.51313 18.0295 3.51313 17.636 3.51313C17.636 7.03617 17.636 10.5378 17.636 14.0604C15.2887 14.0604 12.9545 14.0604 10.5941 14.0604C10.5941 14.4814 10.5894 14.8827 10.6009 15.2835C10.6019 15.3262 10.69 15.3778 10.7479 15.4055C11.8704 15.9402 12.1211 17.4218 11.2195 18.2698C10.6817 18.7753 10.0401 18.9045 9.35637 18.6299C8.67365 18.3557 8.28956 17.821 8.25568 17.0841C8.22128 16.3389 8.56316 15.7797 9.22608 15.4362C9.37461 15.3591 9.43246 15.2861 9.42464 15.1178C9.40901 14.7801 9.41995 14.4413 9.41995 14.0817C7.07943 14.0817 4.74567 14.0817 2.39108 14.0817C2.39108 10.5545 2.39108 7.04816 2.39108 3.52043C1.99083 3.52043 1.61038 3.52043 1.21639 3.52043C1.21639 2.73296 1.21639 1.96685 1.21639 1.17261C0.801543 1.17261 0.400771 1.17261 0 1.17261C0.00104232 0.781739 0.00104232 0.390869 0.00104232 0ZM3.57202 3.52616C3.57202 6.65781 3.57202 9.7733 3.57202 12.8831C7.87419 12.8831 12.1623 12.8831 16.4457 12.8831C16.4457 9.75662 16.4457 6.6453 16.4457 3.52616C12.1519 3.52616 7.86846 3.52616 3.57202 3.52616ZM17.6204 1.18616C12.5344 1.18616 7.46508 1.18616 2.39473 1.18616C2.39473 1.57494 2.39473 1.95018 2.39473 2.33479C7.47342 2.33479 12.5427 2.33479 17.6204 2.33479C17.6204 1.94966 17.6204 1.57442 17.6204 1.18616ZM10.5926 17.0101C10.5967 16.6943 10.3356 16.4238 10.0193 16.417C9.70398 16.4103 9.43089 16.6698 9.42151 16.9856C9.41161 17.3087 9.68105 17.587 10.0042 17.5886C10.3205 17.5896 10.5884 17.3265 10.5926 17.0101Z" fill="black"/>
<path d="M9.42536 8.2228C9.42536 9.00246 9.42536 9.76856 9.42536 10.544C9.81518 10.544 10.1904 10.544 10.587 10.544C10.587 8.99151 10.587 7.43898 10.587 5.87498C10.9831 5.87498 11.3583 5.87498 11.7555 5.87498C11.7555 7.42126 11.7555 8.97379 11.7555 10.5399C12.1562 10.5399 12.5362 10.5399 12.9307 10.5399C12.9307 8.5996 12.9307 6.66089 12.9307 4.70654C13.3247 4.70654 13.7046 4.70654 14.1059 4.70654C14.1059 6.64473 14.1059 8.58814 14.1059 10.5461C14.502 10.5461 14.8777 10.5461 15.2686 10.5461C15.2686 10.9401 15.2686 11.3201 15.2686 11.7135C11.7659 11.7135 8.25952 11.7135 4.7417 11.7135C4.7417 11.3357 4.7417 10.9605 4.7417 10.5633C5.11693 10.5633 5.49738 10.5633 5.89867 10.5633C5.89867 10.1626 5.89867 9.78211 5.89867 9.39176C6.29527 9.39176 6.67051 9.39176 7.06763 9.39176C7.06763 9.76856 7.06763 10.149 7.06763 10.5414C7.46892 10.5414 7.84885 10.5414 8.24337 10.5414C8.24337 9.77012 8.24337 9.0035 8.24337 8.22332C8.63736 8.2228 9.01729 8.2228 9.42536 8.2228Z" fill="black"/>
</svg>
