<svg width="22" height="22" viewBox="0 0 22 22" fill="none" xmlns="http://www.w3.org/2000/svg">
<path d="M19.2318 19.9223C19.5115 20.1187 19.8849 19.991 19.9904 19.6656C20.0708 19.418 19.9521 19.2426 19.7869 19.0773M19.2318 19.9223L19.2893 19.8405C19.2893 19.8405 19.2893 19.8405 19.2893 19.8404M19.2318 19.9223C19.1815 19.8869 19.1369 19.8426 19.0929 19.799L19.0865 19.7926L19.1572 19.7218M19.2318 19.9223L19.2893 19.8404M19.2893 19.8404C19.513 19.9976 19.8102 19.8972 19.8952 19.6348L19.8953 19.6347C19.928 19.534 19.9197 19.453 19.8886 19.3795C19.856 19.3021 19.796 19.2279 19.7162 19.1481M19.2893 19.8404C19.2461 19.81 19.2069 19.7712 19.1609 19.7255L19.1572 19.7218M19.7162 19.1481L19.7869 19.0773M19.7162 19.1481C18.785 18.2183 17.8544 17.2878 16.9237 16.3573C16.3033 15.737 15.6829 15.1166 15.0623 14.4965L15.0622 14.4965C15.0515 14.4858 15.0411 14.4761 15.0309 14.467M19.7162 19.1481C19.7162 19.1481 19.7162 19.1481 19.7161 19.1481L19.7869 19.0773M19.7869 19.0773C18.8555 18.1474 17.9247 17.2167 16.9938 16.286C16.3736 15.6659 15.7534 15.0457 15.133 14.4258L15.0309 14.467M15.0309 14.467C14.9828 14.5143 14.9351 14.5612 14.8878 14.6078C14.7451 14.7481 14.605 14.8859 14.4629 15.0258C14.4762 15.0404 14.49 15.055 14.5044 15.0695L14.5045 15.0695C16.0551 16.6206 17.6058 18.1713 19.1569 19.7216C19.157 19.7217 19.1571 19.7218 19.1572 19.7218M15.0309 14.467L19.1572 19.7218M9.57114 0.901275L9.56323 0.9H9.55522H9.55316H9.5511H9.54904H9.54698H9.54492H9.54286H9.5408H9.53874H9.53668H9.53462H9.53256H9.5305H9.52844H9.52638H9.52432H9.52226H9.5202H9.51814H9.51608H9.51402H9.51196H9.5099H9.50784H9.50578H9.50372H9.50166H9.4996H9.49754H9.49548H9.49342H9.49136H9.4893H9.48724H9.48518H9.48312H9.48106H9.479H9.47694H9.47488H9.47282H9.47076H9.4687H9.46664H9.46458H9.46252H9.46046H9.4584H9.45634H9.45428H9.45222H9.45016H9.4481H9.44604H9.44398H9.44192H9.43986H9.4378H9.43574H9.43368H9.43162H9.42956H9.4275H9.42544H9.42338H9.42132H9.41926H9.4172H9.41514H9.41308H9.41103H9.40897H9.40691H9.40485H9.40279H9.40073H9.39867H9.39661H9.39455H9.39249H9.39043H9.38837H9.38631H9.38425H9.38219H9.38013H9.37807H9.37601H9.37395H9.37189H9.36983H9.36777H9.36571H9.36365H9.36159H9.35953H9.35747H9.35541H9.35335H9.35129H9.34923H9.34717H9.34511H9.34305H9.34099H9.33893H9.33687H9.33481H9.33275H9.33069H9.32863H9.32657H9.32451H9.32245H9.32039H9.31833H9.31627H9.31421H9.31215H9.31009H9.30803H9.30597H9.30391H9.30185H9.29979H9.29773H9.29567H9.29361H9.29155H9.28949H9.28743H9.28537H9.28331H9.28125H9.27919H9.27713H9.27507H9.27301H9.27095H9.26889H9.26683H9.26477H9.26271H9.26065H9.25859H9.25653H9.25447H9.25241H9.25035H9.24829H9.24623H9.24417H9.24211H9.24005H9.23799H9.23593H9.23387H9.23181H9.22975H9.22769H9.22563H9.22357H9.22151H9.21945H9.21739H9.21533H9.21327H9.21121H9.20915H9.20709H9.20503H9.20297H9.20091H9.19885H9.19679H9.19473H9.19267H9.19061H9.18855H9.18649H9.18443H9.18237H9.18031H9.17825H9.17619H9.17413H9.17207H9.17001H9.16795H9.16589H9.16383H9.16177H9.15971H9.15765H9.15559H9.15353H9.15147H9.14941H9.14735H9.14529H9.14323H9.14117H9.13911H9.13705H9.13499H9.13293H9.13087H9.12881H9.12675H9.12469H9.12263H9.12057H9.11851H9.11645H9.11439H9.11233H9.11027H9.10821H9.10615H9.10409H9.10203H9.09997H9.09791H9.09585H9.09379H9.09173H9.08967H9.08762H9.08556H9.0835H9.08144H9.07938H9.07732H9.07526H9.0732H9.07114H9.06908H9.06702H9.06496H9.0629H9.06084H9.05878H9.05672H9.05466H9.0526H9.05054H9.04848H9.04642H9.04436H9.0423H9.04024H9.03818H9.03612H9.03406H9.032H9.02994H9.02788H9.02582H9.02376H9.0217H9.01964H9.01758H9.01552H9.01346H9.0114H9.00934H9.00728H9.00522H9.00316H9.0011H8.99904H8.99698H8.99492H8.99286H8.9908H8.98874H8.98668H8.98462H8.98256H8.9805H8.97844H8.97638H8.97432H8.97226H8.9702H8.96814H8.96608H8.96402H8.96196H8.9599H8.95784H8.95578H8.95372H8.95166H8.9496H8.94754H8.94548H8.94342H8.94136H8.9393H8.93724H8.93518H8.93312H8.93106H8.929H8.92694H8.92488H8.92282H8.92076H8.9187H8.91664H8.91458H8.91252H8.91046H8.9084H8.90634H8.90428H8.90222H8.90016H8.8981H8.89604H8.89398H8.89192H8.88986H8.8878H8.88574H8.88368H8.88162H8.87956H8.8775H8.87544H8.87338H8.87132H8.86926H8.8672H8.86514H8.86308H8.86102H8.85896H8.8569H8.85484H8.85278H8.85072H8.84866H8.8466H8.84454H8.84248H8.84042H8.83836H8.8363H8.83424H8.83218H8.83012H8.82806H8.826H8.82394H8.82188H8.81982H8.81776H8.8157H8.81364H8.81158H8.80952H8.80746H8.8054H8.80334H8.80128H8.79922H8.79716H8.7951H8.79304H8.79098H8.78892H8.78686H8.7848H8.78274H8.78068H8.77862H8.77656H8.7745H8.77244H8.77038H8.76832H8.76626H8.7642H8.76215H8.76009H8.75803H8.75597H8.75391H8.75185H8.74979H8.74773H8.74567H8.74361H8.74155H8.73949H8.73743H8.73537H8.73331H8.73125H8.72919H8.72713H8.72507H8.72301H8.72095H8.71889H8.71683H8.71477H8.71271H8.71065H8.70859H8.70653H8.70447H8.70241H8.70035H8.69829H8.69623H8.69417H8.69211H8.69005H8.68799H8.68593H8.68387H8.68181H8.67975H8.67769H8.67563H8.67357H8.67151H8.66945H8.66739H8.66533H8.66327H8.66121H8.65915H8.65709H8.65503H8.65297H8.65091H8.64885H8.64679H8.64473H8.64267H8.64061H8.63855H8.63649H8.63443H8.63237H8.63031H8.62825H8.62619H8.62413H8.62207H8.62001H8.61795H8.61589H8.61383H8.61177H8.60971H8.60765H8.60559H8.60353H8.60147H8.59941H8.59735H8.59529H8.59323H8.59117H8.58911H8.58705H8.58499H8.58293H8.58087H8.57881H8.57675H8.57469H8.57263H8.57057H8.56851H8.56645H8.56439H8.56233H8.56027H8.55821H8.55615H8.55409H8.55203H8.54997H8.54791H8.54585H8.54379H8.54173H8.53967H8.53761H8.53555H8.53349H8.53143H8.52937H8.52731H8.52525H8.52319H8.52113H8.51907H8.51701H8.51495H8.51289H8.51083H8.50877H8.50671H8.50465H8.50259H8.50053H8.4925L8.48457 0.901282C8.34824 0.923321 8.20939 0.94304 8.06943 0.962915C7.76401 1.00629 7.45337 1.0504 7.15231 1.121L7.1523 1.121C2.79732 2.14301 0.0992501 6.49718 1.1133 10.8528L1.21069 10.8301L1.1133 10.8528C2.38294 16.3055 8.69672 18.8558 13.4082 15.82L13.4085 15.8198C13.4399 15.7994 13.471 15.7816 13.5071 15.7609C13.5419 15.7997 13.576 15.8376 13.6107 15.8723C14.0226 16.2843 14.4348 16.696 14.8469 17.1077C15.9316 18.1912 17.0161 19.2745 18.0955 20.363C18.4192 20.6894 18.7699 20.9958 19.2618 21.0979L19.2719 21.1H19.2822H19.283H19.2839H19.2847H19.2855H19.2864H19.2872H19.2881H19.2889H19.2897H19.2906H19.2914H19.2922H19.2931H19.2939H19.2948H19.2956H19.2964H19.2973H19.2981H19.299H19.2998H19.3006H19.3015H19.3023H19.3032H19.304H19.3048H19.3057H19.3065H19.3074H19.3082H19.309H19.3099H19.3107H19.3116H19.3124H19.3132H19.3141H19.3149H19.3158H19.3166H19.3174H19.3183H19.3191H19.32H19.3208H19.3216H19.3225H19.3233H19.3242H19.325H19.3258H19.3267H19.3275H19.3284H19.3292H19.33H19.3309H19.3317H19.3326H19.3334H19.3342H19.3351H19.3359H19.3368H19.3376H19.3384H19.3393H19.3401H19.341H19.3418H19.3426H19.3435H19.3443H19.3451H19.346H19.3468H19.3477H19.3485H19.3493H19.3502H19.351H19.3519H19.3527H19.3535H19.3544H19.3552H19.3561H19.3569H19.3577H19.3586H19.3594H19.3603H19.3611H19.3619H19.3628H19.3636H19.3645H19.3653H19.3661H19.367H19.3678H19.3687H19.3695H19.3703H19.3712H19.372H19.3728H19.3737H19.3745H19.3754H19.3762H19.377H19.3779H19.3787H19.3796H19.3804H19.3812H19.3821H19.3829H19.3838H19.3846H19.3854H19.3863H19.3871H19.388H19.3888H19.3896H19.3905H19.3913H19.3921H19.393H19.3938H19.3947H19.3955H19.3963H19.3972H19.398H19.3989H19.3997H19.4005H19.4014H19.4022H19.4031H19.4039H19.4047H19.4056H19.4064H19.4073H19.4081H19.4089H19.4098H19.4106H19.4114H19.4123H19.4131H19.414H19.4148H19.4156H19.4165H19.4173H19.4182H19.419H19.4198H19.4207H19.4215H19.4224H19.4232H19.424H19.4249H19.4257H19.4265H19.4274H19.4282H19.4291H19.4299H19.4307H19.4316H19.4324H19.4333H19.4341H19.4349H19.4358H19.4366H19.4375H19.4383H19.4391H19.44H19.4408H19.4417H19.4425H19.4433H19.4442H19.445H19.4458H19.4467H19.4475H19.4484H19.4492H19.45H19.4509H19.4517H19.4526H19.4534H19.4542H19.4551H19.4559H19.4568H19.4576H19.4584H19.4593H19.4601H19.4609H19.4618H19.4626H19.4635H19.4643H19.4651H19.466H19.4668H19.4677H19.4685H19.4693H19.4702H19.471H19.4718H19.4727H19.4735H19.4744H19.4752H19.476H19.4769H19.4777H19.4786H19.4794H19.4802H19.4811H19.4819H19.4828H19.4836H19.4844H19.4853H19.4861H19.4869H19.4878H19.4886H19.4895H19.4903H19.4911H19.492H19.4928H19.4937H19.4945H19.4953H19.4962H19.497H19.4979H19.4987H19.4995H19.5004H19.5012H19.502H19.5029H19.5037H19.5046H19.5054H19.5062H19.5071H19.5079H19.5088H19.5096H19.5104H19.5113H19.5121H19.513H19.5138H19.5146H19.5155H19.5163H19.5171H19.518H19.5188H19.5197H19.5205H19.5213H19.5222H19.523H19.5239H19.5247H19.5255H19.5264H19.5272H19.5281H19.5289H19.5297H19.5306H19.5314H19.5322H19.5331H19.5339H19.5348H19.5356H19.5364H19.5373H19.5381H19.539H19.5398H19.5406H19.5415H19.5423H19.5432H19.544H19.5448H19.5457H19.5465H19.5473H19.5482H19.549H19.5499H19.5507H19.5515H19.5524H19.5532H19.5541H19.5549H19.5557H19.5566H19.5574H19.5583H19.5591H19.5599H19.5608H19.5616H19.5624H19.5633H19.5641H19.565H19.5658H19.5666H19.5675H19.5683H19.5692H19.57H19.5708H19.5717H19.5725H19.5734H19.5742H19.575H19.5759H19.5767H19.5776H19.5784H19.5792H19.5801H19.5809H19.5817H19.5826H19.5834H19.5843H19.5851H19.5859H19.5868H19.5876H19.5885H19.5893H19.5901H19.591H19.5918H19.5927H19.5935H19.5943H19.5952H19.596H19.5968H19.5977H19.5985H19.5994H19.6002H19.601H19.6019H19.6027H19.6036H19.6044H19.6052H19.6061H19.6069H19.6078H19.6086H19.6094H19.6103H19.6111H19.612H19.6128H19.6136H19.6145H19.6153H19.6161H19.617H19.6178H19.6187H19.6195H19.6203H19.6212H19.622H19.6229H19.6237H19.6245H19.6254H19.6262H19.6271H19.6279H19.6287H19.6296H19.6304H19.6313H19.6321H19.6329H19.6338H19.6346H19.6355H19.6363H19.6371H19.638H19.6388H19.6396H19.6405H19.6413H19.6422H19.643H19.6438H19.6447H19.6455H19.6464H19.6472H19.648H19.6489H19.6497H19.6506H19.6514H19.6522H19.6531H19.6539H19.6548H19.6556H19.6564H19.6573H19.6581H19.659H19.6598H19.6606H19.6615H19.6623H19.6632H19.664H19.6648H19.6657H19.6665H19.6674H19.6682H19.669H19.6699H19.6707H19.6715H19.6724H19.6732H19.6741H19.6749H19.6757H19.6766H19.6774H19.6783H19.6791H19.6799H19.6808H19.6816H19.6825H19.6833H19.6841H19.685H19.6858H19.6867H19.6875H19.6883H19.6892H19.69H19.6909H19.6917H19.6925H19.6934H19.6942H19.6951H19.6959H19.6967H19.6976H19.6984H19.6993H19.7001H19.7009H19.7018H19.7026H19.7035H19.7043H19.7051H19.706H19.7068H19.7077H19.7085H19.7093H19.7102H19.711H19.7119H19.7239L19.7357 21.0971C20.1002 21.0077 20.4772 20.8681 20.7176 20.5254L20.7177 20.5253C20.7987 20.4093 20.863 20.2838 20.9211 20.16C20.9444 20.1103 20.9663 20.062 20.9877 20.0146C21.0214 19.9402 21.0542 19.8676 21.0905 19.7945L21.1009 19.7735V19.75V19.7491V19.7482V19.7473V19.7463V19.7454V19.7445V19.7436V19.7427V19.7418V19.7408V19.7399V19.739V19.7381V19.7372V19.7363V19.7354V19.7344V19.7335V19.7326V19.7317V19.7308V19.7299V19.7289V19.728V19.7271V19.7262V19.7253V19.7244V19.7234V19.7225V19.7216V19.7207V19.7198V19.7189V19.718V19.717V19.7161V19.7152V19.7143V19.7134V19.7125V19.7115V19.7106V19.7097V19.7088V19.7079V19.707V19.7061V19.7051V19.7042V19.7033V19.7024V19.7015V19.7006V19.6996V19.6987V19.6978V19.6969V19.696V19.6951V19.6942V19.6932V19.6923V19.6914V19.6905V19.6896V19.6887V19.6877V19.6868V19.6859V19.685V19.6841V19.6832V19.6823V19.6813V19.6804V19.6795V19.6786V19.6777V19.6768V19.6758V19.6749V19.674V19.6731V19.6722V19.6713V19.6703V19.6694V19.6685V19.6676V19.6667V19.6658V19.6649V19.6639V19.663V19.6621V19.6612V19.6603V19.6594V19.6584V19.6575V19.6566V19.6557V19.6548V19.6539V19.653V19.652V19.6511V19.6502V19.6493V19.6484V19.6475V19.6465V19.6456V19.6447V19.6438V19.6429V19.642V19.6411V19.6401V19.6392V19.6383V19.6374V19.6365V19.6356V19.6346V19.6337V19.6328V19.6319V19.631V19.6301V19.6292V19.6282V19.6273V19.6264V19.6255V19.6246V19.6237V19.6227V19.6218V19.6209V19.62V19.6191V19.6182V19.6172V19.6163V19.6154V19.6145V19.6136V19.6127V19.6118V19.6108V19.6099V19.609V19.6081V19.6072V19.6063V19.6053V19.6044V19.6035V19.6026V19.6017V19.6008V19.5999V19.5989V19.598V19.5971V19.5962V19.5953V19.5944V19.5934V19.5925V19.5916V19.5907V19.5898V19.5889V19.588V19.587V19.5861V19.5852V19.5843V19.5834V19.5825V19.5815V19.5806V19.5797V19.5788V19.5779V19.577V19.576V19.5751V19.5742V19.5733V19.5724V19.5715V19.5706V19.5696V19.5687V19.5678V19.5669V19.566V19.5651V19.5641V19.5632V19.5623V19.5614V19.5605V19.5596V19.5587V19.5577V19.5568V19.5559V19.555V19.5541V19.5532V19.5522V19.5513V19.5504V19.5495V19.5486V19.5477V19.5468V19.5458V19.5449V19.544V19.5431V19.5422V19.5413V19.5403V19.5394V19.5385V19.5376V19.5367V19.5358V19.5349V19.5339V19.533V19.5321V19.5312V19.5303V19.5294V19.5284V19.5275V19.5266V19.5257V19.5248V19.5239V19.5229V19.522V19.5211V19.5202V19.5193V19.5184V19.5175V19.5165V19.5156V19.5147V19.5138V19.5129V19.512V19.511V19.5101V19.5092V19.5083V19.5074V19.5065V19.5056V19.5046V19.5037V19.5028V19.5019V19.501V19.5001V19.4991V19.4982V19.4973V19.4964V19.4955V19.4946V19.4937V19.4927V19.4918V19.4909V19.49V19.4891V19.4882V19.4872V19.4863V19.4854V19.4845V19.4836V19.4827V19.4818V19.4808V19.4799V19.479V19.4781V19.4772V19.4763V19.4753V19.4744V19.4735V19.4726V19.4717V19.4708V19.4698V19.4689V19.468V19.4671V19.4662V19.4653V19.4644V19.4634V19.4625V19.4616V19.4607V19.4598V19.4589V19.4579V19.457V19.4561V19.4552V19.4543V19.4534V19.4525V19.4515V19.4506V19.4497V19.4488V19.4479V19.447V19.446V19.4451V19.4442V19.4433V19.4424V19.4415V19.4406V19.4396V19.4387V19.4378V19.4369V19.436V19.4351V19.4341V19.4332V19.4323V19.4314V19.4305V19.4296V19.4286V19.4277V19.4268V19.4259V19.425V19.4241V19.4232V19.4222V19.4213V19.4204V19.4195V19.4186V19.4177V19.4167V19.4158V19.4149V19.414V19.4131V19.4122V19.4113V19.4103V19.4094V19.4085V19.4076V19.4067V19.4058V19.4048V19.4039V19.403V19.4021V19.4012V19.4003V19.3994V19.3984V19.3975V19.3966V19.3957V19.3948V19.3939V19.3929V19.392V19.3911V19.3902V19.3893V19.3884V19.3875V19.3865V19.3856V19.3847V19.3838V19.3829V19.382V19.381V19.3801V19.3792V19.3783V19.3774V19.3765V19.3755V19.3746V19.3737V19.3728V19.3719V19.371V19.3701V19.3691V19.3682V19.3673V19.3664V19.3655V19.3646V19.3636V19.3627V19.3618V19.3609V19.36V19.3591V19.3582V19.3572V19.3563V19.3554V19.3545V19.3536V19.3527V19.3517V19.3508V19.3499V19.349V19.3481V19.3472V19.3463V19.3453V19.3444V19.3435V19.3426V19.3417V19.3408V19.3398V19.3389V19.338V19.3371V19.3362V19.3353V19.3344V19.3334V19.3325V19.3316V19.3307V19.3298V19.3289V19.3279V19.327V19.3261V19.3252V19.3243V19.3234V19.3224V19.3215V19.3206V19.3197V19.3188V19.3179V19.317V19.316V19.3151V19.3142V19.3133V19.3124V19.3115V19.3105V19.3096V19.3087V19.3078V19.3069V19.306V19.3051V19.3041V19.3032V19.3023V19.3014V19.3005V19.2996V19.2986V19.2977V19.2968V19.2959V19.295V19.2941V19.2932V19.2922V19.2913V19.2904V19.2895V19.2886V19.2877V19.2867V19.2858V19.2849V19.284V19.2831V19.2822V19.2812V19.2713L21.099 19.2615C20.9996 18.7678 20.6903 18.4179 20.3647 18.0947L20.3647 18.0946C19.3928 17.1306 18.4252 16.1626 17.4573 15.1944C16.9347 14.6715 16.4119 14.1485 15.8884 13.6261L15.8882 13.6259C15.8522 13.5902 15.8128 13.561 15.7767 13.536C15.768 13.53 15.7598 13.5244 15.7519 13.5191C15.7532 13.5169 15.7545 13.5148 15.7557 13.5126C15.7854 13.4626 15.8064 13.4271 15.8288 13.3918L15.8289 13.3916C16.9346 11.6378 17.3356 9.7347 17.0039 7.68558C16.4779 4.43941 14.0123 1.81993 10.8044 1.10358L10.8043 1.10356C10.5248 1.0414 10.238 0.999881 9.95552 0.958999C9.82609 0.940265 9.69758 0.921666 9.57114 0.901275ZM9.04564 2.11914C12.8574 2.14186 15.9404 5.24617 15.9158 9.03411C15.8911 12.865 12.7803 15.956 8.99574 15.9156C5.15928 15.874 2.09119 12.7787 2.11967 8.98239C2.14817 5.17426 5.25473 2.09642 9.04564 2.11914Z" fill="black" stroke="black" stroke-width="0.2"/>
<path d="M5.42795 11.9486L5.42795 11.9486C5.47929 10.6248 6.08779 9.62025 7.20923 8.92797C7.22129 8.92047 7.23355 8.91301 7.2462 8.90541C6.6174 8.28422 6.32846 7.53192 6.45067 6.63621L5.42795 11.9486ZM5.42795 11.9486C5.42039 12.1471 5.4718 12.318 5.58831 12.4395C5.70485 12.5611 5.87288 12.619 6.06956 12.6193C8.03449 12.6216 9.99941 12.6212 11.9643 12.6193C12.1647 12.619 12.3353 12.5587 12.4535 12.4346C12.5716 12.3106 12.6246 12.1368 12.6177 11.9358M5.42795 11.9486L12.0424 10.083M12.6177 11.9358C12.5948 11.2675 12.4064 10.6471 12.0424 10.083M12.6177 11.9358L12.5177 11.9392M12.6177 11.9358C12.6177 11.9357 12.6177 11.9357 12.6177 11.9357L12.5177 11.9392M12.0424 10.083C11.726 9.59259 11.3122 9.20671 10.7993 8.90829M12.0424 10.083L10.7993 8.90829M12.5177 11.9392C12.5302 12.3032 12.3255 12.5189 11.9642 12.5193C9.99936 12.5212 8.03452 12.5216 6.06968 12.5193C5.7146 12.5189 5.51421 12.3114 5.52788 11.9525M12.5177 11.9392C12.4955 11.2884 12.3123 10.6857 11.9583 10.1372L5.52788 11.9525M5.52788 11.9525C5.57788 10.663 6.16772 9.68839 7.26186 9.013C7.28096 9.00113 7.30021 8.98956 7.32101 8.9772L5.52788 11.9525ZM10.7993 8.90829C11.9117 7.8085 11.824 6.17878 10.9058 5.21286C9.96382 4.22129 8.39717 4.13183 7.3412 5.02127L10.7993 8.90829ZM7.34119 5.02128C6.83993 5.4434 6.5392 5.98688 6.45067 6.6362L7.34119 5.02128ZM6.71146 11.404C6.87987 10.6016 7.68663 9.68349 8.90365 9.62147C10.0383 9.56392 11.0722 10.3351 11.332 11.404H11.3316H11.3221H11.3125H11.303H11.2934H11.2839H11.2744H11.2648H11.2553H11.2458H11.2362H11.2267H11.2171H11.2076H11.1981H11.1885H11.179H11.1695H11.1599H11.1504H11.1409H11.1313H11.1218H11.1123H11.1027H11.0932H11.0837H11.0741H11.0646H11.0551H11.0456H11.036H11.0265H11.017H11.0074H10.9979H10.9884H10.9788H10.9693H10.9598H10.9503H10.9407H10.9312H10.9217H10.9121H10.9026H10.8931H10.8836H10.874H10.8645H10.855H10.8455H10.8359H10.8264H10.8169H10.8074H10.7978H10.7883H10.7788H10.7693H10.7597H10.7502H10.7407H10.7312H10.7216H10.7121H10.7026H10.6931H10.6836H10.674H10.6645H10.655H10.6455H10.636H10.6264H10.6169H10.6074H10.5979H10.5884H10.5788H10.5693H10.5598H10.5503H10.5408H10.5312H10.5217H10.5122H10.5027H10.4932H10.4837H10.4741H10.4646H10.4551H10.4456H10.4361H10.4266H10.417H10.4075H10.398H10.3885H10.379H10.3695H10.36H10.3504H10.3409H10.3314H10.3219H10.3124H10.3029H10.2934H10.2838H10.2743H10.2648H10.2553H10.2458H10.2363H10.2268H10.2173H10.2077H10.1982H10.1887H10.1792H10.1697H10.1602H10.1507H10.1412H10.1317H10.1222H10.1126H10.1031H10.0936H10.0841H10.0746H10.0651H10.0556H10.0461H10.0366H10.0271H10.0176H10.0081H9.99855H9.98905H9.97954H9.97003H9.96053H9.95102H9.94152H9.93201H9.9225H9.913H9.90349H9.89399H9.88448H9.87498H9.86548H9.85597H9.84647H9.83696H9.82746H9.81796H9.80845H9.79895H9.78945H9.77994H9.77044H9.76094H9.75144H9.74193H9.73243H9.72293H9.71343H9.70393H9.69443H9.68492H9.67542H9.66592H9.65642H9.64692H9.63742H9.62792H9.61842H9.60892H9.59942H9.58992H9.58042H9.57092H9.56142H9.55192H9.54243H9.53293H9.52343H9.51393H9.50443H9.49493H9.48544H9.47594H9.46644H9.45694H9.44745H9.43795H9.42845H9.41896H9.40946H9.39996H9.39047H9.38097H9.37147H9.36198H9.35248H9.34299H9.33349H9.324H9.3145H9.305H9.29551H9.28601H9.27652H9.26703H9.25753H9.24804H9.23854H9.22905H9.21955H9.21006H9.20057H9.19107H9.18158H9.17209H9.16259H9.1531H9.14361H9.13412H9.12462H9.11513H9.10564H9.09615H9.08665H9.07716H9.06767H9.05818H9.04869H9.0392H9.0297H9.02021H9.01072H9.00123H8.99174H8.98225H8.97276H8.96327H8.95378H8.94429H8.9348H8.92531H8.91582H8.90633H8.89684H8.88735H8.87786H8.86837H8.85888H8.84939H8.8399H8.83041H8.82092H8.81144H8.80195H8.79246H8.78297H8.77348H8.76399H8.75451H8.74502H8.73553H8.72604H8.71655H8.70707H8.69758H8.68809H8.6786H8.66912H8.65963H8.65014H8.64066H8.63117H8.62168H8.6122H8.60271H8.59322H8.58374H8.57425H8.56476H8.55528H8.54579H8.53631H8.52682H8.51734H8.50785H8.49836H8.48888H8.47939H8.46991H8.46042H8.45094H8.44145H8.43197H8.42248H8.413H8.40351H8.39403H8.38455H8.37506H8.36558H8.35609H8.34661H8.33712H8.32764H8.31816H8.30867H8.29919H8.2897H8.28022H8.27074H8.26125H8.25177H8.24229H8.2328H8.22332H8.21384H8.20435H8.19487H8.18539H8.17591H8.16642H8.15694H8.14746H8.13797H8.12849H8.11901H8.10953H8.10005H8.09056H8.08108H8.0716H8.06212H8.05263H8.04315H8.03367H8.02419H8.01471H8.00522H7.99574H7.98626H7.97678H7.9673H7.95782H7.94834H7.93885H7.92937H7.91989H7.91041H7.90093H7.89145H7.88197H7.87249H7.863H7.85352H7.84404H7.83456H7.82508H7.8156H7.80612H7.79664H7.78716H7.77768H7.7682H7.75872H7.74924H7.73976H7.73028H7.72079H7.71131H7.70183H7.69235H7.68287H7.67339H7.66391H7.65443H7.64495H7.63547H7.62599H7.61651H7.60703H7.59755H7.58807H7.57859H7.56911H7.55963H7.55015H7.54067H7.53119H7.52171H7.51223H7.50276H7.49328H7.4838H7.47432H7.46484H7.45536H7.44588H7.4364H7.42692H7.41744H7.40796H7.39848H7.389H7.37952H7.37004H7.36056H7.35108H7.3416H7.33212H7.32264H7.31317H7.30369H7.29421H7.28473H7.27525H7.26577H7.25629H7.24681H7.23733H7.22785H7.21837H7.20889H7.19941H7.18993H7.18046H7.17098H7.1615H7.15202H7.14254H7.13306H7.12358H7.1141H7.10462H7.09514H7.08566H7.07618H7.0667H7.05723H7.04775H7.03827H7.02879H7.01931H7.00983H7.00035H6.99087H6.98139H6.97191H6.96243H6.95295H6.94347H6.93399H6.92451H6.91504H6.90556H6.89608H6.8866H6.87712H6.86764H6.85816H6.84868H6.8392H6.82972H6.82024H6.81076H6.80128H6.7918H6.78232H6.77284H6.76336H6.75388H6.7444H6.73492H6.72544H6.71596H6.71146ZM7.6228 7.01856C7.62353 6.24168 8.24672 5.62216 9.02599 5.62472C9.8024 5.62727 10.4304 6.26108 10.4216 7.02944C10.4125 7.79716 9.79115 8.41396 9.02403 8.41652C8.24935 8.41907 7.62207 7.79325 7.6228 7.01856Z" fill="black" stroke="black" stroke-width="0.2"/>
</svg>
