<svg width="18" height="22" viewBox="0 0 18 22" fill="none" xmlns="http://www.w3.org/2000/svg">
<path d="M2.7973 21.0999L2.78609 21.0973C2.34929 20.9954 1.92861 20.8345 1.58657 20.5024L1.58656 20.5024C1.16965 20.0974 0.932019 19.6056 0.906867 19.0179L2.7973 21.0999ZM2.7973 21.0999H2.80881M2.7973 21.0999H2.80881M2.80881 21.0999H2.83429H2.85977H2.88525H2.91073H2.93621H2.9617H2.98718H3.01266H3.03814H3.06362H3.0891H3.11459H3.14007H3.16555H3.19103H3.21651H3.24199H3.26747H3.29296H3.31844H3.34392H3.3694H3.39488H3.42036H3.44585H3.47133H3.49681H3.52229H3.54777H3.57325H3.59873H3.62422H3.6497H3.67518H3.70066H3.72614H3.75162H3.7771H3.80259H3.82807H3.85355H3.87903H3.90451H3.92999H3.95548H3.98096H4.00644H4.03192H4.0574H4.08288H4.10836H4.13385H4.15933H4.18481H4.21029H4.23577H4.26125H4.28674H4.31222H4.3377H4.36318H4.38866H4.41414H4.43962H4.46511H4.49059H4.51607H4.54155H4.56703H4.59251H4.61799H4.64348H4.66896H4.69444H4.71992H4.7454H4.77088H4.79637H4.82185H4.84733H4.87281H4.89829H4.92377H4.94925H4.97474H5.00022H5.0257H5.05118H5.07666H5.10214H5.12762H5.15311H5.17859H5.20407H5.22955H5.25503H5.28051H5.306H5.33148H5.35696H5.38244H5.40792H5.4334H5.45888H5.48437H5.50985H5.53533H5.56081H5.58629H5.61177H5.63726H5.66274H5.68822H5.7137H5.73918H5.76466H5.79014H5.81563H5.84111H5.86659H5.89207H5.91755H5.94303H5.96851H5.994H6.01948H6.04496H6.07044H6.09592H6.1214H6.14689H6.17237H6.19785H6.22333H6.24881H6.27429H6.29977H6.32526H6.35074H6.37622H6.4017H6.42718H6.45266H6.47815H6.50363H6.52911H6.55459H6.58007H6.60555H6.63103H6.65652H6.682H6.70748H6.73296H6.75844H6.78392H6.8094H6.83489H6.86037H6.88585H6.91133H6.93681H6.96229H6.98778H7.01326H7.03874H7.06422H7.0897H7.11518H7.14066H7.16615H7.19163H7.21711H7.24259H7.26807H7.29355H7.31903H7.34452H7.37H7.39548H7.42096H7.44644H7.47192H7.49741H7.52289H7.54837H7.57385H7.59933H7.62481H7.65029H7.67578H7.70126H7.72674H7.75222H7.7777H7.80318H7.82867H7.85415H7.87963H7.90511H7.93059H7.95607H7.98155H8.00704H8.03252H8.058H8.08348H8.10896H8.13444H8.15992H8.18541H8.21089H8.23637H8.26185H8.28733H8.31281H8.3383H8.36378H8.38926H8.41474H8.44022H8.4657H8.49118H8.51667H8.54215H8.56763H8.59311H8.61859H8.64407H8.66955H8.69504H8.72052H8.746H8.77148H8.79696H8.82244H8.84793H8.87341H8.89889H8.92437H8.94985H8.97533H9.00081H9.0263H9.05178H9.07726H9.10274H9.12822H9.1537H9.17918H9.20467H9.23015H9.25563H9.28111H9.30659H9.33207H9.35756H9.38304H9.40852H9.434H9.45948H9.48496H9.51044H9.53593H9.56141H9.58689H9.61237H9.63785H9.66333H9.68882H9.7143H9.73978H9.76526H9.79074H9.81622H9.8417H9.86719H9.89267H9.91815H9.94363H9.96911H9.99459H10.0201H10.0456H10.071H10.0965H10.122H10.1475H10.173H10.1984H10.2239H10.2494H10.2749H10.3004H10.3259H10.3513H10.3768H10.4023H10.4278H10.4533H10.4787H10.5042H10.5297H10.5552H10.5807H10.6061H10.6316H10.6571H10.6826H10.7081H10.7336H10.759H10.7845H10.81H10.8355H10.861H10.8864H10.9119H10.9374H10.9629H10.9884H11.0139H11.0393H11.0648H11.0903H11.1158H11.1413H11.1667H11.1922H11.2177H11.2432H11.2687H11.2942H11.3196H11.3451H11.3706H11.3961H11.4216H11.447H11.4725H11.498H11.5235H11.549H11.5744H11.5999H11.6254H11.6509H11.6764H11.7019H11.7273H11.7528H11.7783H11.8038H11.8293H11.8547H11.8802H11.9057H11.9312H11.9567H11.9822H12.0076H12.0331H12.0586H12.0841H12.1096H12.135H12.1605H12.186H12.2115H12.237H12.2624H12.2879H12.3134H12.3389H12.3644H12.3899H12.4153H12.4408H12.4663H12.4918H12.5173H12.5427H12.5682H12.5937H12.6192H12.6447H12.6702H12.6956H12.7211H12.7466H12.7721H12.7976H12.823H12.8485H12.874H12.8995H12.925H12.9504H12.9759H13.0014H13.0269H13.0524H13.0779H13.1033H13.1288H13.1543H13.1798H13.2053H13.2307H13.2562H13.2817H13.3072H13.3327H13.3582H13.3836H13.4091H13.4346H13.4601H13.4856H13.511H13.5365H13.562H13.5875H13.613H13.6384H13.6639H13.6894H13.7149H13.7404H13.7659H13.7913H13.8168H13.8423H13.8678H13.8933H13.9187H13.9442H13.9697H13.9952H14.0207H14.0462H14.0716H14.0971H14.1226H14.1481H14.1736H14.199H14.2245H14.25H14.2755H14.301H14.3265H14.3519H14.3774H14.4029H14.4284H14.4539H14.4793H14.5048H14.5303H14.5558H14.5813H14.6067H14.6322H14.6577H14.6832H14.7087H14.7342H14.7596H14.7851H14.8106H14.8361H14.8616H14.887H14.9125H14.938H14.9635H14.989H15.0145H15.0399H15.0654H15.0909H15.1164H15.1419H15.1673H15.1928H15.2183H15.2438H15.2693H15.2947H15.3202H15.3457H15.3712H15.3967H15.4222H15.4476H15.4731H15.4986H15.5241H15.5496H15.575H15.6005H15.626H15.6515H15.677H15.7025H15.7279H15.7534H15.7789H15.8044H15.8299H15.8553H15.8835L15.9076 21.0852C15.9151 21.0806 15.9216 21.076 15.9259 21.0728L15.9337 21.0673C16.5096 20.9431 16.9677 20.679 17.2819 20.291C17.5977 19.9012 17.7615 19.3944 17.7615 18.799C17.7626 13.5986 17.7621 8.39817 17.761 3.19778L17.761 3.19745L17.761 3.19336C17.7605 3.04657 17.7599 2.88793 17.733 2.73324L17.733 2.7332C17.5422 1.64126 16.6546 0.902592 15.5315 0.901504C13.3019 0.89961 11.0724 0.89992 8.84287 0.90023C8.00682 0.900346 7.17078 0.900462 6.33476 0.900462C6.01453 0.900462 5.6943 0.900603 5.37408 0.900743C4.62695 0.901072 3.87986 0.9014 3.13295 0.899942L3.13289 0.899941C2.72561 0.899401 2.33518 0.985974 1.98195 1.20331L1.98192 1.20332C1.24104 1.6595 0.89946 2.33488 0.900001 3.19786L0.900001 3.19788M2.80881 21.0999L0.900001 3.19788M0.900001 3.19788C0.903126 7.09812 0.902735 10.9983 0.902344 14.8986C0.902214 16.1987 0.902084 17.4988 0.902084 18.799C0.902084 18.8717 0.903677 18.9451 0.906865 19.0179L0.900001 3.19788ZM3.20098 1.93065H3.201C7.28838 1.93013 11.3763 1.93013 15.4637 1.93065C15.8666 1.93065 16.1809 2.05352 16.3943 2.26579C16.6076 2.47801 16.7308 2.79027 16.7308 3.18999C16.7314 8.39715 16.7314 13.6043 16.7308 18.8114C16.7308 19.2066 16.608 19.5188 16.3964 19.732C16.185 19.9451 15.875 20.0692 15.4814 20.0692C11.381 20.0703 7.28005 20.0703 3.17966 20.0692C2.78715 20.0692 2.47771 19.9449 2.26648 19.7315C2.05515 19.518 1.93227 19.2053 1.93227 18.8099C1.93192 17.0742 1.93204 15.3385 1.93215 13.6028C1.93221 12.7349 1.93227 11.867 1.93227 10.9992L1.93201 7.10342L1.93175 3.2077C1.93175 2.79734 2.05359 2.48079 2.26602 2.26701C2.47837 2.05331 2.79281 1.93065 3.20098 1.93065Z" fill="black" stroke="black" stroke-width="0.2"/>
<path d="M7.94869 12.2849L7.94868 12.2849C7.39608 12.8314 6.84706 13.3813 6.29777 13.9315C6.14799 14.0816 5.99819 14.2316 5.84829 14.3816C5.82582 14.4044 5.80425 14.4273 5.78248 14.4509C6.76001 15.2306 8.32208 15.2716 9.44306 14.5323C10.6562 13.732 11.189 12.2188 10.7431 10.8426C10.5512 10.2505 10.1375 9.68972 9.64192 9.28254C9.17675 8.90036 8.65103 8.66278 8.182 8.65102V8.65121V8.65162V8.65204V8.65245V8.65286V8.65327V8.65368V8.6541V8.65451V8.65492V8.65533V8.65574V8.65616V8.65657V8.65698V8.65739V8.6578V8.65822V8.65863V8.65904V8.65945V8.65986V8.66028V8.66069V8.6611V8.66151V8.66192V8.66234V8.66275V8.66316V8.66357V8.66398V8.6644V8.66481V8.66522V8.66563V8.66605V8.66646V8.66687V8.66728V8.66769V8.66811V8.66852V8.66893V8.66934V8.66976V8.67017V8.67058V8.67099V8.67141V8.67182V8.67223V8.67264V8.67306V8.67347V8.67388V8.67429V8.67471V8.67512V8.67553V8.67594V8.67636V8.67677V8.67718V8.67759V8.67801V8.67842V8.67883V8.67924V8.67966V8.68007V8.68048V8.68089V8.68131V8.68172V8.68213V8.68254V8.68296V8.68337V8.68378V8.6842V8.68461V8.68502V8.68543V8.68585V8.68626V8.68667V8.68709V8.6875V8.68791V8.68832V8.68874V8.68915V8.68956V8.68998V8.69039V8.6908V8.69121V8.69163V8.69204V8.69245V8.69287V8.69328V8.69369V8.69411V8.69452V8.69493V8.69534V8.69576V8.69617V8.69658V8.697V8.69741V8.69782V8.69824V8.69865V8.69906V8.69948V8.69989V8.7003V8.70072V8.70113V8.70154V8.70196V8.70237V8.70278V8.7032V8.70361V8.70402V8.70444V8.70485V8.70526V8.70568V8.70609V8.7065V8.70692V8.70733V8.70774V8.70816V8.70857V8.70898V8.7094V8.70981V8.71022V8.71064V8.71105V8.71146V8.71188V8.71229V8.7127V8.71312V8.71353V8.71395V8.71436V8.71477V8.71519V8.7156V8.71601V8.71643V8.71684V8.71726V8.71767V8.71808V8.7185V8.71891V8.71932V8.71974V8.72015V8.72057V8.72098V8.72139V8.72181V8.72222V8.72263V8.72305V8.72346V8.72388V8.72429V8.7247V8.72512V8.72553V8.72595V8.72636V8.72677V8.72719V8.7276V8.72802V8.72843V8.72884V8.72926V8.72967V8.73009V8.7305V8.73091V8.73133V8.73174V8.73216V8.73257V8.73298V8.7334V8.73381V8.73423V8.73464V8.73506V8.73547V8.73588V8.7363V8.73671V8.73713V8.73754V8.73796V8.73837V8.73878V8.7392V8.73961V8.74003V8.74044V8.74086V8.74127V8.74169V8.7421V8.74251V8.74293V8.74334V8.74376V8.74417V8.74459V8.745V8.74542V8.74583V8.74624V8.74666V8.74707V8.74749V8.7479V8.74832V8.74873V8.74915V8.74956V8.74998V8.75039V8.75081V8.75122V8.75163V8.75205V8.75246V8.75288V8.75329V8.75371V8.75412V8.75454V8.75495V8.75537V8.75578V8.7562V8.75661V8.75703V8.75744V8.75786V8.75827V8.75869V8.7591V8.75952V8.75993V8.76035V8.76076V8.76118V8.76159V8.76201V8.76242V8.76284C8.182 9.01783 8.18176 9.27279 8.18151 9.5277C8.18081 10.2557 8.18011 10.9834 8.18513 11.711L7.94869 12.2849ZM7.94869 12.2849C8.11219 12.1231 8.18688 11.942 8.18513 11.711L7.94869 12.2849ZM4.776 10.3923L4.77598 10.3923C4.22267 11.5511 4.33638 12.6514 5.04008 13.7274C5.15855 13.6091 5.27705 13.4909 5.39553 13.3726C5.96448 12.805 6.53314 12.2377 7.09724 11.665L7.16849 11.7352L7.09711 11.6651C7.10872 11.6533 7.12238 11.6299 7.13303 11.5949L4.776 10.3923ZM4.776 10.3923C5.27276 9.35084 6.33069 8.73844 7.15234 8.65724L4.776 10.3923ZM7.66997 7.56026C10.0335 7.57093 11.9458 9.50398 11.9314 11.8675C11.917 14.2104 9.98849 16.1124 7.64087 16.1001C5.29295 16.0879 3.39444 14.1705 3.40296 11.8192L7.66997 7.56026ZM7.66997 7.56026C7.66997 7.56026 7.66997 7.56026 7.66997 7.56026M7.66997 7.56026L7.66997 7.56026M7.66997 7.56026C5.33502 7.54959 3.41097 9.4708 3.40296 11.8192L7.66997 7.56026Z" fill="black" stroke="black" stroke-width="0.2"/>
<path d="M15.2596 18.0771V18.0771C15.2614 18.2437 15.2055 18.3832 15.0786 18.4764C14.9581 18.565 14.7883 18.6006 14.5851 18.6006H14.5645H14.5438H14.5232H14.5026H14.482H14.4613H14.4407H14.4201H14.3994H14.3788H14.3582H14.3376H14.3169H14.2963H14.2757H14.255H14.2344H14.2138H14.1931H14.1725H14.1519H14.1313H14.1106H14.09H14.0694H14.0487H14.0281H14.0075H13.9869H13.9662H13.9456H13.925H13.9043H13.8837H13.8631H13.8424H13.8218H13.8012H13.7806H13.7599H13.7393H13.7187H13.698H13.6774H13.6568H13.6362H13.6155H13.5949H13.5743H13.5536H13.533H13.5124H13.4918H13.4711H13.4505H13.4299H13.4092H13.3886H13.368H13.3473H13.3267H13.3061H13.2855H13.2648H13.2442H13.2236H13.2029H13.1823H13.1617H13.1411H13.1204H13.0998H13.0792H13.0585H13.0379H13.0173H12.9966H12.976H12.9554H12.9348H12.9141H12.8935H12.8729H12.8522H12.8316H12.811H12.7904H12.7697H12.7491H12.7285H12.7078H12.6872H12.6666H12.6459H12.6253H12.6047H12.5841H12.5634H12.5428H12.5222H12.5015H12.4809H12.4603H12.4397H12.419H12.3984H12.3778H12.3571H12.3365H12.3159H12.2952H12.2746H12.254H12.2334H12.2127H12.1921H12.1715H12.1508H12.1302H12.1096H12.089H12.0683H12.0477H12.0271H12.0064H11.9858H11.9652H11.9446H11.9239H11.9033H11.8827H11.862H11.8414H11.8208H11.8001H11.7795H11.7589H11.7383H11.7176H11.697H11.6764H11.6557H11.6351H11.6145H11.5939H11.5732H11.5526H11.532H11.5113H11.4907H11.4701H11.4494H11.4288H11.4082H11.3876H11.3669H11.3463H11.3257H11.305H11.2844H11.2638H11.2432H11.2225H11.2019H11.1813H11.1606H11.14H11.1194H11.0987H11.0781H11.0575H11.0369H11.0162H10.9956H10.975H10.9543H10.9337H10.9131H10.8925H10.8718H10.8512H10.8306H10.8099H10.7893H10.7687H10.748H10.7274H10.7068H10.6862H10.6655H10.6449H10.6243H10.6036H10.583H10.5624H10.5418H10.5211H10.5005H10.4799H10.4592H10.4386H10.418H10.3973H10.3767H10.3561H10.3355H10.3148H10.2942H10.2736H10.2529H10.2323H10.2117H10.1911H10.1704H10.1498H10.1292H10.1085H10.0879H10.0673H10.0467H10.026H10.0054H9.98476H9.96413H9.9435H9.92287H9.90225H9.88162H9.86099H9.84036H9.81973H9.7991H9.77847H9.75784H9.73721H9.71658H9.69595H9.67532H9.65469H9.63406H9.61343H9.59281H9.57218H9.55155H9.53092H9.51029H9.48966H9.46903H9.4484H9.42777H9.40714H9.38651H9.36588H9.34525H9.32462H9.30399H9.28337H9.26274H9.24211H9.22148H9.20085H9.18022H9.15959H9.13896H9.11833H9.0977H9.07707H9.05644H9.03581H9.01518H8.99455H8.97393H8.9533H8.93267H8.91204H8.89141H8.87078H8.85015H8.82952H8.80889H8.78826H8.76763H8.747H8.72637H8.70574H8.68511H8.66448H8.64386H8.62323H8.6026H8.58197H8.56134H8.54071H8.52008H8.49945H8.47882H8.45819H8.43756H8.41693H8.3963H8.37567H8.35504H8.33442H8.31379H8.29316H8.27253H8.2519H8.23127H8.21064H8.19001H8.16938H8.14875H8.12812H8.10749H8.08686H8.06623H8.04561H8.02498H8.00435H7.98372H7.96309H7.94246H7.92183H7.9012H7.88057H7.85994H7.83931H7.81868H7.79805H7.77742H7.75679H7.73617H7.71554H7.69491H7.67428H7.65365H7.63302H7.61239H7.59176H7.57113H7.5505H7.52987H7.50924H7.48861H7.46798H7.44735H7.42672H7.4061H7.38547H7.36484H7.34421H7.32358H7.30295H7.28232H7.26169H7.24106H7.22043H7.1998H7.17917H7.15854H7.13791H7.11728H7.09666H7.07603H7.0554H7.03477H7.01414H6.99351H6.97288H6.95225H6.93162H6.91099H6.89036H6.86973H6.8491H6.82847H6.80784H6.78722H6.76659H6.74596H6.72533H6.7047H6.68407H6.66344H6.64281H6.62218H6.60155H6.58092H6.56029H6.53966H6.51903H6.4984H6.47778H6.45715H6.43652H6.41589H6.39526H6.37463H6.354H6.33337H6.31274H6.29211H6.27148H6.25085H6.23022H6.20959H6.18896H6.16834H6.14771H6.12708H6.10645H6.08582H6.06519H6.04456H6.02393H6.0033H5.98267H5.96204H5.94141H5.92078H5.90015H5.87952H5.8589H5.83827H5.81764H5.79701H5.77638H5.75575H5.73512H5.71449H5.69386H5.67323H5.6526H5.63197H5.61134H5.59071H5.57008H5.54945H5.52883H5.5082H5.48757H5.46694H5.44631H5.42568H5.40505H5.38442H5.36379H5.34316H5.32253H5.3019H5.28127H5.26064H5.24001H5.21939H5.19876H5.17813H5.1575H5.13687H5.11624H5.09561H5.07498H5.05435H5.03372H5.01309H4.99246H4.97183H4.9512H4.93057H4.90995H4.88932H4.86869H4.84806H4.82743H4.8068H4.78617H4.76554H4.74491H4.72428H4.70365H4.68302H4.66239H4.64176H4.62113H4.60051H4.57988H4.55925H4.53862H4.51799H4.49736H4.47673H4.4561H4.43547H4.41484H4.39421H4.37358H4.35295H4.33232H4.31169H4.29107H4.27044H4.24981H4.22918H4.20855H4.18792H4.16729H4.14666H4.12603H4.1054H4.08477H4.06414H4.04351H4.02288C3.83849 18.6006 3.67959 18.5569 3.567 18.461C3.45131 18.3623 3.39844 18.2204 3.40581 18.0561L15.2596 18.0771ZM15.2596 18.0771C15.2577 17.9147 15.2019 17.7793 15.0769 17.6893C14.9582 17.6038 14.7921 17.5704 14.5929 17.5704H14.5827H14.5724H14.5621H14.5519H14.5416H14.5314H14.5211H14.5109H14.5006H14.4903H14.4801H14.4698H14.4596H14.4493H14.4391H14.4288H14.4186H14.4083H14.398H14.3878H14.3775H14.3673H14.357H14.3468H14.3365H14.3262H14.316H14.3057H14.2955H14.2852H14.275H14.2647H14.2544H14.2442H14.2339H14.2237H14.2134H14.2032H14.1929H14.1826H14.1724H14.1621H14.1519H14.1416H14.1314H14.1211H14.1108H14.1006H14.0903H14.0801H14.0698H14.0596H14.0493H14.039H14.0288H14.0185H14.0083H13.998H13.9878H13.9775H13.9672H13.957H13.9467H13.9365H13.9262H13.916H13.9057H13.8954H13.8852H13.8749H13.8647H13.8544H13.8442H13.8339H13.8236H13.8134H13.8031H13.7929H13.7826H13.7723H13.7621H13.7518H13.7416H13.7313H13.7211H13.7108H13.7005H13.6903H13.68H13.6698H13.6595H13.6493H13.639H13.6287H13.6185H13.6082H13.598H13.5877H13.5775H13.5672H13.5569H13.5467H13.5364H13.5262H13.5159H13.5057H13.4954H13.4851H13.4749H13.4646H13.4544H13.4441H13.4338H13.4236H13.4133H13.4031H13.3928H13.3826H13.3723H13.362H13.3518H13.3415H13.3313H13.321H13.3108H13.3005H13.2902H13.28H13.2697H13.2595H13.2492H13.2389H13.2287H13.2184H13.2082H13.1979H13.1877H13.1774H13.1671H13.1569H13.1466H13.1364H13.1261H13.1159H13.1056H13.0953H13.0851H13.0748H13.0646H13.0543H13.044H13.0338H13.0235H13.0133H13.003H12.9928H12.9825H12.9722H12.962H12.9517H12.9415H12.9312H12.921H12.9107H12.9004H12.8902H12.8799H12.8697H12.8594H12.8491H12.8389H12.8286H12.8184H12.8081H12.7979H12.7876H12.7773H12.7671H12.7568H12.7466H12.7363H12.726H12.7158H12.7055H12.6953H12.685H12.6748H12.6645H12.6542H12.644H12.6337H12.6235H12.6132H12.603H12.5927H12.5824H12.5722H12.5619H12.5517H12.5414H12.5311H12.5209H12.5106H12.5004H12.4901H12.4799H12.4696H12.4593H12.4491H12.4388H12.4286H12.4183H12.408H12.3978H12.3875H12.3773H12.367H12.3568H12.3465H12.3362H12.326H12.3157H12.3055H12.2952H12.2849H12.2747H12.2644H12.2542H12.2439H12.2337H12.2234H12.2131H12.2029H12.1926H12.1824H12.1721H12.1619H12.1516H12.1413H12.1311H12.1208H12.1106H12.1003H12.09H12.0798H12.0695H12.0593H12.049H12.0388H12.0285H12.0182H12.008H11.9977H11.9875H11.9772H11.9669H11.9567H11.9464H11.9362H11.9259H11.9157H11.9054H11.8951H11.8849H11.8746H11.8644H11.8541H11.8438H11.8336H11.8233H11.8131H11.8028H11.7926H11.7823H11.772H11.7618H11.7515H11.7413H11.731H11.7207H11.7105H11.7002H11.69H11.6797H11.6695H11.6592H11.6489H11.6387H11.6284H11.6182H11.6079H11.5976H11.5874H11.5771H11.5669H11.5566H11.5464H11.5361H11.5258H11.5156H11.5053H11.4951H11.4848H11.4746H11.4643H11.454H11.4438H11.4335H11.4233H11.413H11.4027H11.3925H11.3822H11.372H11.3617H11.3515H11.3412H11.3309H11.3207H11.3104H11.3002H11.2899H11.2796H11.2694H11.2591H11.2489H11.2386H11.2284H11.2181H11.2078H11.1976H11.1873H11.1771H11.1668H11.1566H11.1463H11.136H11.1258H11.1155H11.1053H11.095H11.0847H11.0745H11.0642H11.054H11.0437H11.0335H11.0232H11.0129H11.0027H10.9924H10.9822H10.9719H10.9616H10.9514H10.9411H10.9309H10.9206H10.9104H10.9001H10.8898H10.8796H10.8693H10.8591H10.8488H10.8386H10.8283H10.818H10.8078H10.7975H10.7873H10.777H10.7667H10.7565H10.7462H10.736H10.7257H10.7155H10.7052H10.6949H10.6847H10.6744H10.6642H10.6539H10.6437H10.6334H10.6231H10.6129H10.6026H10.5924H10.5821H10.5718H10.5616H10.5513H10.5411H10.5308H10.5206H10.5103H10.5H10.4898H10.4795H10.4693H10.459H10.4488H10.4385H10.4282H10.418H10.4077H10.3975H10.3872H10.377H10.3667H10.3564H10.3462H10.3359H10.3257H10.3154H10.3051H10.2949H10.2846H10.2744H10.2641H10.2539H10.2436H10.2333H10.2231H10.2128H10.2026H10.1923H10.1821H10.1718H10.1615H10.1513H10.141H10.1308H10.1205H10.1103H10.1H10.0897H10.0795H10.0692H10.059H10.0487H10.0385H10.0282H10.0179H10.0077H9.99742H9.98717H9.97691H9.96665H9.95639H9.94614H9.93588H9.92562H9.91536H9.90511H9.89485H9.88459H9.87434H9.86408H9.85382H9.84356H9.83331H9.82305H9.81279H9.80254H9.79228H9.78202H9.77176H9.76151H9.75125H9.74099H9.73074H9.72048H9.71022H9.69996H9.68971H9.67945H9.66919H9.65894H9.64868H9.63842H9.62816H9.61791H9.60765H9.59739H9.58714H9.57688H9.56662H9.55637H9.54611H9.53585H9.5256H9.51534H9.50508H9.49482H9.48457H9.47431H9.46405H9.4538H9.44354H9.43328H9.42303H9.41277H9.40251H9.39226H9.382H9.37174H9.36149H9.35123H9.34097C8.90343 17.5704 8.46591 17.5704 8.02842 17.5704C6.71516 17.5703 5.40209 17.5702 4.08903 17.5709M15.2596 18.0771L4.08903 17.5709M3.84294 17.579L3.84311 17.579C3.91514 17.5702 3.98872 17.5705 4.05471 17.5708C4.06638 17.5709 4.07782 17.5709 4.08897 17.5709C4.08899 17.5709 4.08901 17.5709 4.08903 17.5709M3.84294 17.579L14.5929 17.6704H9.34097C8.90341 17.6704 8.46589 17.6704 8.02838 17.6704C6.71512 17.6703 5.40207 17.6702 4.08903 17.6709V17.5709M3.84294 17.579C3.59467 17.6096 3.41679 17.8092 3.40581 18.056L3.50571 18.0605C3.51456 17.861 3.65675 17.7027 3.85518 17.6782L3.84294 17.579Z" fill="black" stroke="black" stroke-width="0.2"/>
<path d="M13.8294 7.57118H13.9294C14.0109 7.57118 14.0931 7.57073 14.1755 7.57028C14.3603 7.56928 14.5467 7.56826 14.732 7.57224L14.7321 7.57224C14.8831 7.57555 15.0153 7.62462 15.1109 7.71605C15.2069 7.80794 15.2578 7.93501 15.259 8.07811L15.259 8.07813C15.2603 8.22516 15.2079 8.35678 15.1099 8.45175C15.0123 8.54643 14.8762 8.59807 14.7213 8.59928L14.7213 8.59928C14.1807 8.60345 13.6395 8.60397 13.0987 8.59876L13.0987 8.59876C12.7962 8.59563 12.5699 8.37965 12.5654 8.09099L13.8294 7.57118ZM13.8294 7.57118V7.5715M13.8294 7.57118V7.5715M13.8294 7.5715C13.7788 7.57132 13.7281 7.57104 13.6773 7.57075C13.4815 7.56965 13.2839 7.56853 13.0874 7.57329L13.0873 7.57329C12.7877 7.5808 12.5608 7.80339 12.5654 8.09098L13.8294 7.5715Z" fill="black" stroke="black" stroke-width="0.2"/>
<path d="M13.1226 11.0997L13.1224 11.0997C12.9631 11.0976 12.822 11.0451 12.7205 10.9503C12.6183 10.8548 12.5621 10.7215 12.566 10.5717L12.566 10.5716C12.5698 10.4273 12.6279 10.3006 12.7296 10.2104C12.8307 10.121 12.9685 10.0731 13.1241 10.0722M13.1226 11.0997L13.1242 10.0722C13.1242 10.0722 13.1242 10.0722 13.1241 10.0722M13.1226 11.0997C13.3066 11.1019 13.4915 11.1013 13.6754 11.1008C13.7586 11.1005 13.8416 11.1003 13.9242 11.1003C14.0103 11.1003 14.0967 11.1006 14.1833 11.1008C14.3574 11.1014 14.5324 11.102 14.707 11.1003L14.7073 11.1003C14.8624 11.0982 14.9994 11.0511 15.0996 10.9611C15.2007 10.8702 15.2564 10.7427 15.2596 10.5967L15.2596 10.5966C15.2627 10.4454 15.2128 10.3116 15.1112 10.2158C15.0105 10.121 14.8694 10.0733 14.7072 10.0722L14.7072 10.0722C14.1797 10.0685 13.6516 10.0685 13.1241 10.0722M13.1226 11.0997L13.1241 10.0722" fill="black" stroke="black" stroke-width="0.2"/>
<path d="M13.1263 13.4997C13.3053 13.5018 13.4843 13.5013 13.6634 13.5007C13.7447 13.5005 13.8261 13.5002 13.9075 13.5002C13.9943 13.5002 14.0811 13.5004 14.1679 13.5007C14.3415 13.5011 14.5151 13.5016 14.6887 13.5002C14.9757 13.4976 15.1554 13.3398 15.159 13.0914C15.1627 12.8372 14.9908 12.6742 14.7028 12.6721L13.1263 13.4997ZM13.1263 13.4997C12.8487 13.496 12.6612 13.321 12.6654 13.0773C12.6695 12.8414 12.8513 12.6742 13.1211 12.6721L13.1263 13.4997ZM13.125 13.5997L13.1251 13.5997C13.3049 13.6018 13.4852 13.6013 13.6646 13.6007C13.7458 13.6005 13.8268 13.6002 13.9075 13.6002C13.9937 13.6002 14.0802 13.6004 14.1669 13.6007C14.3409 13.6011 14.5154 13.6016 14.6895 13.6002L14.6896 13.6002C14.8507 13.5987 14.9924 13.5536 15.0958 13.4634C15.2007 13.3719 15.2568 13.2423 15.259 13.0928L15.259 13.0928C15.2612 12.9418 15.2106 12.8087 15.1083 12.7139C15.007 12.62 14.8657 12.5733 14.7035 12.5721L14.7035 12.5721C14.176 12.5685 13.6479 12.5685 13.1204 12.5721L13.1203 12.5721C12.965 12.5733 12.8274 12.6223 12.7268 12.7126C12.6256 12.8035 12.5679 12.931 12.5654 13.0755L12.5654 13.0756C12.5628 13.225 12.6196 13.3574 12.7224 13.4521C12.8244 13.546 12.9656 13.5976 13.125 13.5997Z" fill="black" stroke="black" stroke-width="0.2"/>
<path d="M13.1132 16.0991L13.1132 16.0991C12.8023 16.0942 12.5666 15.8842 12.5653 15.5849M13.1132 16.0991L14.7155 15.072C14.1816 15.0678 13.6473 15.0678 13.1129 15.072L13.1129 15.072C12.8004 15.0745 12.564 15.2871 12.5653 15.5849M13.1132 16.0991C13.3009 16.102 13.4894 16.1013 13.6767 16.1007C13.7565 16.1004 13.8361 16.1001 13.9153 16.1001C13.9986 16.1001 14.0824 16.1004 14.1665 16.1007C14.3496 16.1014 14.5338 16.1021 14.7171 16.0996L14.7175 16.0996M13.1132 16.0991L14.7175 16.0996M12.5653 15.5849L12.6653 15.5845L12.5653 15.5849ZM14.7175 16.0996C14.8721 16.0969 15.0082 16.0468 15.1066 15.9539C15.2056 15.8604 15.259 15.7304 15.259 15.5835C15.259 15.4365 15.208 15.3064 15.1085 15.2132M14.7175 16.0996L15.1085 15.2132M15.1085 15.2132C15.0098 15.1206 14.8726 15.0732 14.7155 15.072L15.1085 15.2132Z" fill="black" stroke="black" stroke-width="0.2"/>
</svg>
