<svg width="18" height="20" viewBox="0 0 18 20" fill="none" xmlns="http://www.w3.org/2000/svg">
<path d="M15.076 20C14.4593 19.8016 14.4005 19.313 14.4578 18.7943C13.99 18.6463 13.5421 18.5177 13.1036 18.3604C12.7833 18.2458 12.6031 17.9406 12.6156 17.6104C12.6281 17.2828 12.8406 16.9776 13.1645 16.9083C13.3442 16.8698 13.5489 16.9005 13.7333 16.9406C14.2145 17.0453 14.689 17.1823 15.1703 17.2875C15.4505 17.3484 15.7156 17.2937 15.9213 17.0687C16.1697 16.7964 16.1562 16.424 15.8505 16.2203C15.6812 16.1073 15.4609 16.0307 15.2578 16.0156C14.7385 15.9771 14.2338 15.901 13.7833 15.625C13.0166 15.1562 12.6109 14.4755 12.7093 13.5698C12.8114 12.6302 13.3427 11.999 14.2364 11.6797C14.2973 11.6578 14.3609 11.6432 14.4505 11.6172C14.4505 11.4578 14.4489 11.2911 14.451 11.124C14.4562 10.6609 14.7854 10.3167 15.2239 10.313C15.6723 10.3094 16.0062 10.6547 16.013 11.1281C16.0156 11.3099 15.9536 11.5401 16.0411 11.6599C16.1265 11.7771 16.3671 11.7786 16.538 11.8365C16.7166 11.8969 16.8973 11.9526 17.0692 12.0286C17.4598 12.2016 17.6328 12.6323 17.4791 13.0229C17.3296 13.4042 16.9156 13.613 16.5208 13.4781C16.0328 13.3115 15.5453 13.1573 15.0249 13.1365C14.7927 13.1271 14.5854 13.1734 14.4234 13.3526C14.1572 13.6469 14.2088 14.0437 14.5416 14.2594C14.7999 14.4271 15.0932 14.4344 15.3864 14.45C16.0828 14.4875 16.6744 14.7583 17.1307 15.287C18.1093 16.4203 17.6479 18.1568 16.2203 18.7047C16.0463 18.7713 15.9937 18.8531 16.0104 19.0255C16.0567 19.5094 15.8546 19.8411 15.3874 19.9995C15.2843 20 15.1802 20 15.076 20Z" fill="black"/>
<path d="M0.622882 20C0.114548 19.7792 -0.00888924 19.5859 0.000485763 19.026C0.0567358 15.7099 2.58226 12.7458 5.85778 12.2344C7.39424 11.9943 8.94319 11.9828 10.4573 12.4526C10.5687 12.487 10.6802 12.5245 10.788 12.5688C11.1916 12.7344 11.3843 13.1625 11.2385 13.5625C11.0968 13.951 10.6692 14.1766 10.2708 14.0323C8.93226 13.5479 7.55101 13.5755 6.18226 13.7625C3.77288 14.0911 1.81351 16.2141 1.59371 18.637C1.58121 18.7729 1.55778 18.9099 1.56507 19.0453C1.59059 19.5229 1.39215 19.8448 0.934861 20C0.831215 20 0.727048 20 0.622882 20Z" fill="black"/>
<path d="M7.61873 10.5464C4.7104 10.5484 2.33852 8.17604 2.34165 5.26719C2.34477 2.36615 4.70988 0.0020847 7.61092 1.37167e-06C10.5208 -0.00208196 12.8911 2.36927 12.888 5.27865C12.8849 8.18021 10.5203 10.5443 7.61873 10.5464ZM11.3255 5.28281C11.3297 3.23438 9.66613 1.56458 7.61977 1.5625C5.58019 1.56042 3.91144 3.21823 3.90415 5.25365C3.89633 7.30313 5.55623 8.97865 7.59998 8.98438C9.64894 8.98958 11.3213 7.32813 11.3255 5.28281Z" fill="black"/>
</svg>
