<svg width="27" height="30" viewBox="0 0 27 30" fill="none" xmlns="http://www.w3.org/2000/svg">
<path d="M21.4204 17.8125V14.5312C21.4204 12.2013 19.7606 10.3125 17.7131 10.3125H16.0653C15.3828 10.3125 14.8295 9.6829 14.8295 8.90625V7.03125C14.8295 4.7013 13.1697 2.8125 11.1222 2.8125H9.06249M9.06249 18.75H17.3011M9.06249 22.5H13.1818M11.5341 2.8125H6.17897C5.49646 2.8125 4.94318 3.4421 4.94318 4.21875V25.7812C4.94318 26.5579 5.49646 27.1875 6.17897 27.1875H20.1847C20.8672 27.1875 21.4204 26.5579 21.4204 25.7812V14.0625C21.4204 7.8493 16.9942 2.8125 11.5341 2.8125Z" stroke="black" stroke-width="1.7" stroke-linecap="round" stroke-linejoin="round"/>
</svg>
