<svg width="28" height="28" viewBox="0 0 28 28" fill="none" xmlns="http://www.w3.org/2000/svg">
<path d="M17.6437 6.76874L17.6436 6.76881C16.8255 7.38847 16.0026 8.00199 15.1748 8.60938C14.9814 8.75248 14.7808 8.82026 14.5946 8.80994C14.4073 8.79956 14.2398 8.71041 14.1148 8.54991C13.9795 8.37651 13.9308 8.18091 13.9688 7.98786C14.0066 7.79584 14.1288 7.61202 14.3248 7.45739C14.4323 7.3716 14.5437 7.28988 14.6541 7.20894C14.6934 7.18009 14.7326 7.15134 14.7715 7.12254L14.7715 7.12253L15.1519 6.84073H14.908H14.895H14.882H14.869H14.856H14.843H14.83H14.817H14.804H14.791H14.778H14.765H14.752H14.739H14.726H14.713H14.7H14.687H14.674H14.661H14.6479H14.6349H14.6219H14.6089H14.5959H14.5829H14.5699H14.5569H14.5439H14.5309H14.5179H14.5049H14.4919H14.4789H14.4659H14.4529H14.4399H14.4269H14.4139H14.4009H14.3879H14.3749H14.3618H14.3488H14.3358H14.3228H14.3098H14.2968H14.2838H14.2708H14.2578H14.2448H14.2318H14.2188H14.2058H14.1928H14.1798H14.1668H14.1538H14.1407H14.1277H14.1147H14.1017H14.0887H14.0757H14.0627H14.0497H14.0367H14.0237H14.0107H13.9977H13.9847H13.9717H13.9587H13.9457H13.9326H13.9196H13.9066H13.8936H13.8806H13.8676H13.8546H13.8416H13.8286H13.8156H13.8026H13.7896H13.7766H13.7635H13.7505H13.7375H13.7245H13.7115H13.6985H13.6855H13.6725H13.6595H13.6465H13.6335H13.6205H13.6074H13.5944H13.5814H13.5684H13.5554H13.5424H13.5294H13.5164H13.5034H13.4904H13.4774H13.4643H13.4513H13.4383H13.4253H13.4123H13.3993H13.3863H13.3733H13.3603H13.3473H13.3342H13.3212H13.3082H13.2952H13.2822H13.2692H13.2562H13.2432H13.2302H13.2172H13.2041H13.1911H13.1781H13.1651H13.1521H13.1391H13.1261H13.1131H13.1001H13.087H13.074H13.061H13.048H13.035H13.022H13.009H12.996H12.983H12.9699H12.9569H12.9439H12.9309H12.9179H12.9049H12.8919H12.8789H12.8658H12.8528H12.8398H12.8268H12.8138H12.8008H12.7878H12.7748H12.7617H12.7487H12.7357H12.7227H12.7097H12.6967H12.6837H12.6707H12.6576H12.6446H12.6316H12.6186H12.6056H12.5926H12.5796H12.5666H12.5535H12.5405H12.5275H12.5145H12.5015H12.4885H12.4755H12.4624H12.4494H12.4364H12.4234H12.4104H12.3974H12.3844H12.3713H12.3583H12.3453H12.3323H12.3193H12.3063H12.2933H12.2802H12.2672H12.2542H12.2412H12.2282H12.2152H12.2021H12.1891H12.1761H12.1631H12.1501H12.1371H12.1241H12.111H12.098H12.085H12.072H12.059H12.046H12.0329H12.0199H12.0069H11.9939H11.9809H11.9679H11.9548H11.9418H11.9288H11.9158H11.9028H11.8898H11.8767H11.8637H11.8507H11.8377H11.8247H11.8117H11.7986H11.7856H11.7726H11.7596H11.7466H11.7336H11.7205H11.7075H11.6945H11.6815H11.6685H11.6555H11.6424H11.6294H11.6164H11.6034H11.5904H11.5773H11.5643H11.5513H11.5383H11.5253H11.5123H11.4992H11.4862H11.4732H11.4602H11.4472H11.4341H11.4211H11.4081H11.3951H11.3821H11.369H11.356H11.343H11.33H11.317H11.304H11.2909H11.2779H11.2649H11.2519H11.2389H11.2258H11.2128H11.1998H11.1868H11.1738H11.1607H11.1477H11.1347H11.1217H11.1087H11.0956H11.0826H11.0696H11.0566H11.0436H11.0305H11.0175H11.0045H10.9915H10.9784H10.9654H10.9524H10.9394H10.9264H10.9133H10.9003H10.8873H10.8743H10.8613H10.8482H10.8352H10.8222H10.8092H10.7962H10.7831H10.7701H10.7571H10.7441H10.731H10.718H10.705H10.692H10.679H10.6659H10.6529H10.6399H10.6269H10.6138H10.6008H10.5878H10.5748H10.5617H10.5487H10.5357H10.5227H10.5097H10.4966H10.4836H10.4706H10.4576H10.4445H10.4315H10.4185H10.4055H10.3924H10.3794H10.3664H10.3534H10.3404H10.3273H10.3143H10.3013H10.2883H10.2752H10.2622H10.2492H10.2362H10.2231H10.2101H10.1971H10.1841H10.171H10.158H10.145H10.132H10.1189H10.1059H10.0929H10.0799H10.0668H10.0538H10.0408H10.0278H10.0147H10.0017H9.98869H9.97566H9.96263H9.94961H9.93658H9.92356H9.91053H9.89751H9.88448H9.87145H9.85843H9.8454H9.83238H9.81935H9.80632H9.7933H9.78027H9.76724H9.75422H9.74119H9.72816H9.71514H9.70211H9.68908H9.67606H9.66303H9.65H9.63698H9.62395H9.61092H9.59789H9.58487H9.57184H9.55881H9.54578H9.53276H9.51973H9.5067H9.49367H9.48065H9.46762H9.45459H9.44156H9.42853H9.41551H9.40248H9.38945H9.37642H9.36339H9.35036H9.33734H9.32431H9.31128H9.29825H9.28522H9.27219H9.25916H9.24613H9.23311H9.22008H9.20705H9.19402H9.18099H9.16796H9.15493H9.1419H9.12887H9.11584H9.10281H9.08978H9.07675H9.06372H9.05069H9.03766H9.02463H9.0116H8.99857H8.98554H8.97251H8.95948H8.94645H8.93342H8.92039H8.90736H8.89433H8.8813H8.86827H8.85524H8.84221H8.82918H8.81615H8.80312H8.79008H8.77705H8.76402H8.75099H8.73796H8.72493H8.7119H8.69887H8.68583H8.6728H8.65977H8.64674H8.63371H8.62068H8.60764H8.59461H8.58158H8.56855H8.55552H8.54248H8.52945H8.51642H8.50339H8.49036H8.47732H8.46429H8.45126H8.43822H8.42519H8.41216H8.39913H8.38609H8.37306H8.36003H8.34699H8.33396H8.32093H8.30789H8.29486H8.28183H8.2688H8.25576H8.24273H8.24197V6.84072C7.64693 6.83171 7.05891 6.96975 6.53037 7.24251C5.62274 7.7224 5.10429 8.48944 4.91971 9.48514L4.91963 9.4856C4.82581 9.96679 4.84356 10.463 4.97152 10.9363C5.09949 11.4096 5.33428 11.8475 5.65795 12.2164L5.65878 12.2174L5.65877 12.2174C6.14297 12.7982 6.78944 13.0821 7.51504 13.2267C7.87858 13.2864 8.2471 13.3103 8.61533 13.2982L8.61697 13.2982V13.2982H8.63859H8.66021H8.68183H8.70345H8.72507H8.74669H8.76831H8.78993H8.81155H8.83317H8.85479H8.87641H8.89803H8.91965H8.94127H8.96289H8.98451H9.00613H9.02775H9.04937H9.07099H9.09261H9.11423H9.13585H9.15747H9.17909H9.20071H9.22233H9.24395H9.26557H9.28719H9.3088H9.33042H9.35204H9.37366H9.39528H9.4169H9.43852H9.46014H9.48176H9.50338H9.525H9.54662H9.56824H9.58986H9.61148H9.6331H9.65472H9.67634H9.69796H9.71958H9.7412H9.76282H9.78444H9.80606H9.82768H9.8493H9.87092H9.89254H9.91416H9.93578H9.9574H9.97901H10.0006H10.0223H10.0439H10.0655H10.0871H10.1087H10.1304H10.152H10.1736H10.1952H10.2168H10.2385H10.2601H10.2817H10.3033H10.3249H10.3465H10.3682H10.3898H10.4114H10.433H10.4546H10.4763H10.4979H10.5195H10.5411H10.5627H10.5844H10.606H10.6276H10.6492H10.6708H10.6925H10.7141H10.7357H10.7573H10.7789H10.8006H10.8222H10.8438H10.8654H10.887H10.9087H10.9303H10.9519H10.9735H10.9951H11.0168H11.0384H11.06H11.0816H11.1032H11.1249H11.1465H11.1681H11.1897H11.2113H11.233H11.2546H11.2762H11.2978H11.3194H11.3411H11.3627H11.3843H11.4059H11.4275H11.4492H11.4708H11.4924H11.514H11.5356H11.5573H11.5789H11.6005H11.6221H11.6437H11.6653H11.687H11.7086H11.7302H11.7518H11.7734H11.7951H11.8167H11.8383H11.8599H11.8815H11.9032H11.9248H11.9464H11.968H11.9896H12.0113H12.0329H12.0545H12.0761H12.0977H12.1194H12.141H12.1626H12.1842H12.2058H12.2275H12.2491H12.2707H12.2923H12.3139H12.3356H12.3572H12.3788H12.4004H12.422H12.4437H12.4653H12.4869H12.5085H12.5301H12.5518H12.5734H12.595H12.6166H12.6382H12.6599H12.6815H12.7031H12.7247H12.7463H12.768H12.7896H12.8112H12.8328H12.8544H12.8761H12.8977H12.9193H12.9409H12.9625H12.9842H13.0058H13.0274H13.049H13.0706H13.0922H13.1139H13.1355H13.1571H13.1787H13.2003H13.222H13.2436H13.2652H13.2868H13.3084H13.3301H13.3517H13.3733H13.3949H13.4165H13.4382H13.4598H13.4814H13.503H13.5246H13.5463H13.5679H13.5895H13.6111H13.6327H13.6544H13.676H13.6976H13.7192H13.7408H13.7625H13.7841H13.8057H13.8273H13.8489H13.8706H13.8922H13.9138H13.9354H13.957H13.9787H14.0003H14.0219H14.0435H14.0651H14.0868H14.1084H14.13H14.1516H14.1732H14.1949H14.2165H14.2381H14.2597H14.2813H14.303H14.3246H14.3462H14.3678H14.3894H14.411H14.4327H14.4543H14.4759H14.4975H14.5191H14.5408H14.5624H14.584H14.6056H14.6272H14.6489H14.6705H14.6921H14.7137H14.7353H14.757H14.7786H14.8002H14.8218H14.8434H14.8651H14.8867H14.9083H14.9299H14.9515H14.9732H14.9948H15.0164H15.038H15.0596H15.0813H15.1029H15.1245H15.1461H15.1677H15.1894H15.211H15.2326H15.2542H15.2758H15.2975H15.3191H15.3407H15.3623H15.3839H15.4056H15.4272H15.4488H15.4704H15.492H15.5137H15.5353H15.5569H15.5785H15.6001H15.6218H15.6434H15.665H15.6866H15.7082H15.7298H15.7515H15.7731H15.7947H15.8163H15.8379H15.8596H15.8812H15.9028H15.9244H15.946H15.9677H15.9893H16.0109H16.0325H16.0541H16.0758H16.0974H16.119H16.1406H16.1622H16.1839H16.2055H16.2271H16.2487H16.2703H16.292H16.3136H16.3352H16.3568H16.3784H16.4001H16.4217H16.4433H16.4649H16.4865H16.5082H16.5298H16.5514H16.573H16.5946H16.6163H16.6379H16.6595H16.6811H16.7027H16.7244H16.746H16.7676H16.7892H16.8108H16.8325H16.8541H16.8757H16.8973H16.9189H16.9406H16.9622H16.9838H17.0054H17.027H17.0487H17.0703H17.0919H17.1135H17.1351H17.1567H17.1784H17.2H17.2216H17.2432H17.2648H17.2865H17.3081H17.3297H17.3513H17.3729H17.3946H17.4162H17.4378H17.4594H17.481H17.5027H17.5243H17.5459H17.5675H17.5891H17.6108H17.6324H17.654H17.6756H17.6972H17.7189H17.7405H17.7621H17.7837H17.8053H17.827H17.8486H17.8702H17.8918H17.9134H17.9351H17.9567H17.9783H17.9999H18.0215H18.0432H18.0648H18.0864H18.108H18.1296H18.1513H18.1729H18.1945H18.2161H18.2377H18.2594H18.281H18.3026H18.3242H18.3458H18.3675H18.3891H18.4107H18.4323H18.4539H18.4755H18.4972H18.5188H18.5404H18.562H18.5836H18.6053H18.6269H18.6485H18.6701H18.6917H18.7134H18.735H18.7566H18.7782H18.7998H18.8215H18.8431H18.8647H18.8863H18.9079H18.9296H18.9512H18.9728H18.9944H19.016H19.0377H19.0593H19.0809H19.1025H19.1241H19.1458H19.1674H19.189H19.2106H19.2322H19.2539H19.2755H19.2971H19.3187H19.3403H19.362H19.3836H19.4052H19.4268H19.4484H19.4701H19.4917H19.5133H19.5349H19.5565H19.5782H19.5998H19.6214H19.643H19.6646H19.6863C20.4155 13.2982 21.148 13.3799 21.817 13.7136L21.817 13.7136C23.3491 14.4783 24.3237 15.6709 24.505 17.415C24.6954 19.2543 23.9948 20.7053 22.5079 21.7798L22.5068 21.7806L22.5068 21.7806C21.9758 22.1436 21.3698 22.3831 20.7336 22.4814L20.7305 22.4819L20.7305 22.4818C20.6675 22.4874 20.6081 22.5134 20.5612 22.5557C20.5144 22.598 20.4826 22.6543 20.4707 22.7161L20.4695 22.7221L20.4692 22.722C20.1134 23.8242 18.9386 24.6332 17.8603 24.5296L17.8602 24.5295C16.5005 24.3961 15.5174 23.4945 15.3212 22.2465L15.321 22.2457C15.2682 21.8708 15.296 21.489 15.4025 21.1257C15.509 20.7623 15.6917 20.4258 15.9387 20.1383C16.1856 19.8508 16.491 19.6191 16.8346 19.4584C17.178 19.2978 17.5517 19.2119 17.931 19.2064M17.6437 6.76874L17.9323 19.2564M17.6437 6.76874C17.8678 6.59818 17.987 6.37532 17.9897 6.14743C17.9924 5.91935 17.8782 5.69505 17.6532 5.52218C16.8199 4.87959 15.9797 4.25145 15.1324 3.63778L17.6437 6.76874ZM17.931 19.2064C17.9312 19.2064 17.9314 19.2064 17.9316 19.2064L17.9323 19.2564M17.931 19.2064C17.9308 19.2064 17.9306 19.2064 17.9304 19.2064L17.9323 19.2564M17.931 19.2064C18.4654 19.1867 18.9925 19.3348 19.438 19.6298C19.8835 19.9249 20.225 20.352 20.4141 20.851M17.9323 19.2564C18.4564 19.2369 18.9734 19.3821 19.4104 19.6715C19.8473 19.9609 20.1821 20.3798 20.3675 20.8692M20.4141 20.851C20.4141 20.8508 20.414 20.8507 20.4139 20.8505L20.3675 20.8692M20.4141 20.851C20.4614 20.9684 20.4977 21.0278 20.5449 21.055C20.5899 21.081 20.6586 21.0848 20.7937 21.0459M20.4141 20.851C20.4142 20.8512 20.4142 20.8513 20.4143 20.8514L20.3675 20.8692M20.3675 20.8692L20.7937 21.0459M20.7937 21.0459C20.7938 21.0459 20.7938 21.0459 20.7938 21.0459L20.8077 21.0939L20.7937 21.0459ZM15.3165 5.47634C15.2934 5.45973 15.2707 5.44336 15.2482 5.42721L15.164 5.42829C15.1865 5.44444 15.2093 5.46081 15.2324 5.47742L15.3165 5.47634ZM14.9054 5.4816V5.4316H14.9051L14.9047 5.4316L14.9054 5.4816ZM7.18639 5.5362C7.18633 5.53621 7.18627 5.53622 7.18621 5.53623C7.18614 5.53624 7.18608 5.53625 7.18602 5.53626L7.1951 5.58543L7.18639 5.5362ZM19.7583 14.7139C19.7583 14.7139 19.7584 14.7139 19.7584 14.7139C19.7585 14.7139 19.7585 14.7139 19.7585 14.7139L19.7587 14.6639L19.7583 14.7139ZM22.8418 16.558C22.8418 16.558 22.8418 16.558 22.8418 16.5581C22.8419 16.5582 22.8419 16.5583 22.842 16.5584L22.8871 16.5369L22.8418 16.558ZM14.3263 4.82266L14.3559 4.78234L14.3263 4.82264C14.3263 4.82265 14.3263 4.82265 14.3263 4.82266Z" fill="black" stroke="black" stroke-width="0.1"/>
<path d="M3.49303 22.3609L3.49303 22.3609C3.20262 20.7584 4.44284 19.4303 5.74843 19.2282L5.7486 19.2282C6.87345 19.058 8.16655 19.7322 8.58631 20.9104C8.62475 21.0179 8.66783 21.0785 8.72173 21.1137C8.77618 21.1493 8.84976 21.1643 8.96136 21.1624L8.96222 21.2124M3.49303 22.3609L8.61232 22.7646C8.61641 22.753 8.62032 22.7418 8.6241 22.7316C8.6366 22.6977 8.64896 22.6693 8.66508 22.6458C8.68066 22.6232 8.69974 22.6052 8.72637 22.5924C8.75344 22.5793 8.7912 22.5703 8.84594 22.5702C9.37564 22.5772 9.90913 22.575 10.4689 22.5726C10.7111 22.5717 10.9582 22.5706 11.212 22.5703C11.1136 22.6433 11.0195 22.7126 10.9288 22.7795C10.7233 22.9309 10.5346 23.07 10.3498 23.2113L10.3498 23.2113L10.3487 23.2121C10.1752 23.3524 9.99841 23.5128 9.99806 23.7852C9.99383 23.9202 10.0267 24.0539 10.0931 24.1717C10.1595 24.2896 10.2569 24.387 10.3749 24.4536C10.4982 24.5267 10.6414 24.5593 10.7843 24.5468C10.9267 24.5344 11.0617 24.4779 11.1703 24.3851C11.3071 24.2843 11.444 24.1836 11.581 24.0828C12.3025 23.5521 13.0267 23.0194 13.7397 22.4673C13.835 22.4015 13.9131 22.3137 13.9674 22.2114C14.0219 22.1087 14.0507 21.9944 14.0514 21.8782C14.0521 21.762 14.0246 21.6473 13.9714 21.544C13.9183 21.441 13.8412 21.3522 13.7465 21.2853C12.9003 20.6297 12.0436 19.9886 11.1764 19.362C10.8099 19.0966 10.365 19.1682 10.1429 19.4841L10.1428 19.4843C9.90268 19.8279 10.0106 20.2766 10.3834 20.5521L10.3837 20.5523C10.4755 20.6191 10.567 20.6859 10.6604 20.7542C10.8328 20.8802 11.0119 21.0112 11.2128 21.1557C11.0302 21.1555 10.8514 21.155 10.6756 21.1545C10.0811 21.1527 9.52066 21.151 8.9612 21.1624L8.96222 21.2124M3.49303 22.3609C3.74839 23.7685 5.23001 24.7873 6.66404 24.4776C7.59194 24.278 8.22382 23.7086 8.58406 22.8404L3.49303 22.3609ZM8.96222 21.2124C9.52106 21.201 10.0806 21.2027 10.6749 21.2045C10.8732 21.2051 11.0753 21.2057 11.2825 21.2058L8.53921 20.9272C8.6196 21.152 8.73161 21.2164 8.96222 21.2124Z" fill="black" stroke="black" stroke-width="0.1"/>
<path d="M19.2158 6.11524C19.2092 7.56993 20.4343 8.81254 21.8803 8.81254L21.8812 8.81253C22.5849 8.7998 23.2562 8.51524 23.7537 8.0187C24.2513 7.52216 24.5363 6.85239 24.5487 6.15041L24.5487 6.14962C24.5514 4.69839 23.2914 3.45995 21.8705 3.4747C20.4511 3.48943 19.2159 4.7109 19.2158 6.11524ZM19.2158 6.11524C19.2158 6.11528 19.2158 6.11532 19.2158 6.11536H19.2658L19.2158 6.11513C19.2158 6.11516 19.2158 6.1152 19.2158 6.11524Z" fill="black" stroke="black" stroke-width="0.1"/>
<path d="M19.3025 21.8712L19.3026 21.8712L19.3026 21.8687C19.3086 21.6896 19.278 21.5112 19.2128 21.3443C19.1475 21.1774 19.049 21.0255 18.9231 20.8977C18.7972 20.77 18.6466 20.6691 18.4804 20.6012C18.3146 20.5334 18.1368 20.4999 17.9576 20.5026C17.7762 20.4974 17.5956 20.5289 17.4267 20.5953C17.2574 20.6618 17.1034 20.7619 16.9742 20.8896C16.8449 21.0173 16.7429 21.1698 16.6745 21.338C16.6062 21.5062 16.5728 21.6865 16.5764 21.868L16.5763 21.868L16.5765 21.8712C16.6052 22.2121 16.7612 22.5299 17.0137 22.7614C17.2662 22.993 17.5966 23.1215 17.9395 23.1215C18.2824 23.1215 18.6129 22.993 18.8653 22.7614C19.1178 22.5299 19.2738 22.2121 19.3025 21.8712Z" fill="white" stroke="black" stroke-width="0.1"/>
<path d="M5.57748 23.1291C5.74315 23.1958 5.92062 23.2284 6.09923 23.2249C6.28057 23.234 6.46186 23.2055 6.63159 23.1411C6.8019 23.0765 6.95684 22.9772 7.08652 22.8495C7.21621 22.7218 7.3178 22.5686 7.3848 22.3995C7.45158 22.231 7.48253 22.0506 7.47571 21.8695C7.48158 21.6913 7.45121 21.5137 7.38641 21.3474C7.3214 21.1806 7.22308 21.0287 7.09744 20.901C6.9718 20.7732 6.82145 20.6723 6.65553 20.6043C6.48996 20.5364 6.31233 20.5027 6.13336 20.5052C5.95169 20.4996 5.77077 20.5309 5.60155 20.5971C5.43197 20.6634 5.27769 20.7635 5.1481 20.8912C5.01852 21.0189 4.91634 21.1716 4.84778 21.34C4.77938 21.508 4.74589 21.6882 4.74934 21.8695C4.74465 22.0478 4.77624 22.2253 4.84221 22.3912C4.90832 22.5575 5.00759 22.7086 5.13398 22.8354C5.26036 22.9622 5.41125 23.0621 5.57748 23.1291Z" fill="white" stroke="black" stroke-width="0.1"/>
<path d="M21.8662 7.49816C21.6867 7.50116 21.5085 7.46776 21.3423 7.39997C21.176 7.33214 21.0252 7.23128 20.8992 7.10352C20.7731 6.97576 20.6745 6.82377 20.6091 6.65677C20.5441 6.49066 20.5135 6.31316 20.519 6.13495C20.5044 5.94769 20.5286 5.75942 20.5903 5.58192C20.6522 5.40353 20.7506 5.23992 20.8792 5.10142C21.0078 4.96293 21.1638 4.85257 21.3374 4.77731C21.5109 4.70206 21.6982 4.66355 21.8875 4.66421C22.0767 4.66487 22.2637 4.7047 22.4367 4.78116C22.6097 4.85763 22.765 4.96908 22.8926 5.10848C23.0202 5.24787 23.1175 5.41217 23.1782 5.59099C23.2386 5.76916 23.2615 5.95787 23.2454 6.14528C23.2429 6.54611 23.1008 6.88492 22.8561 7.12364C22.6112 7.36259 22.2669 7.49806 21.8662 7.49816ZM21.8662 7.49816C21.8661 7.49816 21.8659 7.49816 21.8658 7.49816V7.44816L21.8666 7.49815C21.8665 7.49815 21.8664 7.49816 21.8662 7.49816Z" fill="white" stroke="black" stroke-width="0.1"/>
</svg>
