<svg width="26" height="26" viewBox="0 0 26 26" fill="none" xmlns="http://www.w3.org/2000/svg">
<mask id="path-1-outside-1_49_519" maskUnits="userSpaceOnUse" x="0.437744" y="0.444092" width="25" height="25" fill="black">
<rect fill="white" x="0.437744" y="0.444092" width="25" height="25"/>
<path fill-rule="evenodd" clip-rule="evenodd" d="M10.6885 24.566C11.4581 24.5658 12.2277 24.5655 12.9974 24.5655C13.7666 24.5655 14.536 24.5658 15.3054 24.566C17.2289 24.5665 19.1529 24.5671 21.0769 24.5642C21.3482 24.5642 21.6264 24.5532 21.8894 24.4929C23.6144 24.0928 24.5543 22.8282 24.557 20.8676C24.5639 15.6407 24.5611 10.4151 24.5556 5.18812C24.5556 4.7812 24.5406 4.37427 24.4255 3.97283C23.9555 2.33967 22.6991 1.44773 20.8098 1.44636C17.1418 1.44342 13.4738 1.44398 9.80589 1.44454C8.33869 1.44476 6.87149 1.44499 5.40429 1.44499C2.76136 1.44499 1.44469 2.75207 1.44332 5.38267C1.44195 9.71906 1.44195 14.0554 1.44469 18.3918C1.44469 18.6275 1.44295 18.8634 1.44122 19.0992C1.43556 19.8683 1.42989 20.6376 1.48442 21.402C1.62006 23.3215 2.99291 24.5614 4.91791 24.5642C6.8418 24.5671 8.765 24.5665 10.6885 24.566ZM10.7134 22.8194C11.4698 22.8192 12.2262 22.819 12.9825 22.819C14.2942 22.819 15.6062 22.8193 16.9185 22.8197C18.231 22.82 19.5438 22.8203 20.8565 22.8203C22.3033 22.819 22.8116 22.3381 22.8144 20.9036C22.8226 15.6547 22.8212 10.4058 22.8144 5.15693C22.8116 3.76079 22.2417 3.19768 20.8606 3.19631C15.6117 3.1922 10.3629 3.1922 5.11398 3.19631C3.80278 3.19631 3.19857 3.7512 3.19446 5.04869C3.17801 10.3661 3.17939 15.6835 3.19309 21.0008C3.19583 22.312 3.73702 22.8149 5.03999 22.8176C6.93167 22.8205 8.82265 22.82 10.7134 22.8194Z"/>
</mask>
<path fill-rule="evenodd" clip-rule="evenodd" d="M10.6885 24.566C11.4581 24.5658 12.2277 24.5655 12.9974 24.5655C13.7666 24.5655 14.536 24.5658 15.3054 24.566C17.2289 24.5665 19.1529 24.5671 21.0769 24.5642C21.3482 24.5642 21.6264 24.5532 21.8894 24.4929C23.6144 24.0928 24.5543 22.8282 24.557 20.8676C24.5639 15.6407 24.5611 10.4151 24.5556 5.18812C24.5556 4.7812 24.5406 4.37427 24.4255 3.97283C23.9555 2.33967 22.6991 1.44773 20.8098 1.44636C17.1418 1.44342 13.4738 1.44398 9.80589 1.44454C8.33869 1.44476 6.87149 1.44499 5.40429 1.44499C2.76136 1.44499 1.44469 2.75207 1.44332 5.38267C1.44195 9.71906 1.44195 14.0554 1.44469 18.3918C1.44469 18.6275 1.44295 18.8634 1.44122 19.0992C1.43556 19.8683 1.42989 20.6376 1.48442 21.402C1.62006 23.3215 2.99291 24.5614 4.91791 24.5642C6.8418 24.5671 8.765 24.5665 10.6885 24.566ZM10.7134 22.8194C11.4698 22.8192 12.2262 22.819 12.9825 22.819C14.2942 22.819 15.6062 22.8193 16.9185 22.8197C18.231 22.82 19.5438 22.8203 20.8565 22.8203C22.3033 22.819 22.8116 22.3381 22.8144 20.9036C22.8226 15.6547 22.8212 10.4058 22.8144 5.15693C22.8116 3.76079 22.2417 3.19768 20.8606 3.19631C15.6117 3.1922 10.3629 3.1922 5.11398 3.19631C3.80278 3.19631 3.19857 3.7512 3.19446 5.04869C3.17801 10.3661 3.17939 15.6835 3.19309 21.0008C3.19583 22.312 3.73702 22.8149 5.03999 22.8176C6.93167 22.8205 8.82265 22.82 10.7134 22.8194Z" fill="black"/>
<path d="M10.6885 24.566L10.6885 24.516L10.6885 24.516L10.6885 24.566ZM15.3054 24.566L15.3054 24.516L15.3054 24.516L15.3054 24.566ZM21.0769 24.5642V24.5142L21.0769 24.5142L21.0769 24.5642ZM21.8894 24.4929L21.9006 24.5417L21.9007 24.5416L21.8894 24.4929ZM24.557 20.8676L24.607 20.8677L24.607 20.8677L24.557 20.8676ZM24.5556 5.18812L24.5056 5.18812L24.5056 5.18817L24.5556 5.18812ZM24.4255 3.97283L24.4735 3.95905L24.4735 3.95901L24.4255 3.97283ZM20.8098 1.44636L20.8097 1.49636L20.8097 1.49636L20.8098 1.44636ZM9.80589 1.44454L9.80589 1.49454L9.80589 1.44454ZM1.44332 5.38267L1.39332 5.38265L1.39332 5.38266L1.44332 5.38267ZM1.44469 18.3918L1.49469 18.3918L1.49469 18.3918L1.44469 18.3918ZM1.44122 19.0992L1.39122 19.0988L1.39122 19.0988L1.44122 19.0992ZM1.48442 21.402L1.5343 21.3984L1.53429 21.3984L1.48442 21.402ZM4.91791 24.5642L4.91798 24.5142L4.91798 24.5142L4.91791 24.5642ZM10.7134 22.8194L10.7134 22.7694L10.7134 22.7694L10.7134 22.8194ZM16.9185 22.8197L16.9185 22.8697L16.9185 22.8697L16.9185 22.8197ZM20.8565 22.8203L20.8565 22.8703L20.8565 22.8703L20.8565 22.8203ZM22.8144 20.9036L22.8644 20.9037L22.8644 20.9036L22.8144 20.9036ZM22.8144 5.15693L22.8644 5.15686L22.8644 5.15683L22.8144 5.15693ZM20.8606 3.19631L20.8607 3.14631L20.8606 3.14631L20.8606 3.19631ZM5.11398 3.19631L5.11398 3.24631L5.11401 3.24631L5.11398 3.19631ZM3.19446 5.04869L3.14446 5.04853L3.14446 5.04854L3.19446 5.04869ZM3.19309 21.0008L3.24309 21.0007L3.24309 21.0007L3.19309 21.0008ZM5.03999 22.8176L5.03988 22.8676L5.03991 22.8676L5.03999 22.8176ZM12.9974 24.5155C12.2277 24.5155 11.4581 24.5158 10.6885 24.516L10.6885 24.616C11.4581 24.6158 12.2277 24.6155 12.9974 24.6155V24.5155ZM15.3054 24.516C14.536 24.5158 13.7666 24.5155 12.9974 24.5155V24.6155C13.7666 24.6155 14.5359 24.6158 15.3054 24.616L15.3054 24.516ZM21.0769 24.5142C19.1529 24.5171 17.2289 24.5165 15.3054 24.516L15.3054 24.616C17.2289 24.6165 19.1529 24.6171 21.077 24.6142L21.0769 24.5142ZM21.8782 24.4442C21.6209 24.5032 21.3474 24.5142 21.0769 24.5142V24.6142C21.3491 24.6142 21.6318 24.6032 21.9006 24.5417L21.8782 24.4442ZM24.507 20.8675C24.5056 21.84 24.2719 22.6351 23.8288 23.2358C23.386 23.836 22.7308 24.2464 21.8781 24.4442L21.9007 24.5416C22.773 24.3393 23.4502 23.9174 23.9093 23.2952C24.368 22.6733 24.6056 21.8558 24.607 20.8677L24.507 20.8675ZM24.5056 5.18817C24.5111 10.4151 24.5139 15.6407 24.507 20.8675L24.607 20.8677C24.6139 15.6407 24.6111 10.415 24.6056 5.18806L24.5056 5.18817ZM24.3774 3.98661C24.4905 4.3809 24.5056 4.78186 24.5056 5.18812H24.6056C24.6056 4.78053 24.5907 4.36765 24.4735 3.95905L24.3774 3.98661ZM20.8097 1.49636C21.7466 1.49704 22.5224 1.71847 23.1212 2.1386C23.7196 2.55849 24.1452 3.17954 24.3774 3.98666L24.4735 3.95901C24.2358 3.13296 23.7982 2.49146 23.1786 2.05674C22.5594 1.62227 21.7623 1.39705 20.8098 1.39636L20.8097 1.49636ZM9.80589 1.49454C13.4739 1.49398 17.1418 1.49342 20.8097 1.49636L20.8098 1.39636C17.1418 1.39342 13.4738 1.39398 9.80588 1.39454L9.80589 1.49454ZM5.40429 1.49499C6.8715 1.49499 8.3387 1.49476 9.80589 1.49454L9.80588 1.39454C8.33868 1.39476 6.87149 1.39499 5.40429 1.39499V1.49499ZM1.49332 5.3827C1.494 4.07511 1.82153 3.10572 2.46846 2.46282C3.11545 1.81987 4.0904 1.49499 5.40429 1.49499V1.39499C4.07525 1.39499 3.0704 1.72365 2.39797 2.39189C1.72549 3.06018 1.39401 4.05963 1.39332 5.38265L1.49332 5.3827ZM1.49469 18.3918C1.49195 14.0554 1.49195 9.71906 1.49332 5.38269L1.39332 5.38266C1.39195 9.71905 1.39195 14.0555 1.39469 18.3919L1.49469 18.3918ZM1.49121 19.0996C1.49295 18.8638 1.49469 18.6277 1.49469 18.3918H1.39469C1.39469 18.6273 1.39295 18.863 1.39122 19.0988L1.49121 19.0996ZM1.53429 21.3984C1.47993 20.6363 1.48555 19.869 1.49121 19.0996L1.39122 19.0988C1.38556 19.8676 1.37986 20.6388 1.43455 21.4055L1.53429 21.3984ZM4.91798 24.5142C3.96639 24.5128 3.15442 24.2058 2.56392 23.665C1.97352 23.1242 1.60131 22.3468 1.5343 21.3984L1.43454 21.4055C1.50317 22.3767 1.8852 23.1789 2.49638 23.7387C3.10747 24.2984 3.94443 24.6128 4.91784 24.6142L4.91798 24.5142ZM10.6885 24.516C8.76498 24.5165 6.84183 24.5171 4.91798 24.5142L4.91783 24.6142C6.84178 24.6171 8.76502 24.6165 10.6885 24.616L10.6885 24.516ZM12.9825 22.769C12.2261 22.769 11.4698 22.7692 10.7134 22.7694L10.7135 22.8694C11.4698 22.8692 12.2262 22.869 12.9825 22.869V22.769ZM16.9185 22.7697C15.6063 22.7693 14.2942 22.769 12.9825 22.769V22.869C14.2942 22.869 15.6062 22.8693 16.9185 22.8697L16.9185 22.7697ZM20.8565 22.7703C19.5438 22.7703 18.231 22.77 16.9185 22.7697L16.9185 22.8697C18.231 22.87 19.5438 22.8703 20.8565 22.8703V22.7703ZM22.7644 20.9035C22.763 21.6173 22.6353 22.0784 22.3421 22.3635C22.0485 22.649 21.577 22.7697 20.8564 22.7703L20.8565 22.8703C21.5828 22.8696 22.0889 22.7492 22.4118 22.4352C22.7352 22.1209 22.863 21.6243 22.8644 20.9037L22.7644 20.9035ZM22.7644 5.15699C22.7712 10.4058 22.7726 15.6547 22.7644 20.9035L22.8644 20.9036C22.8726 15.6547 22.8712 10.4058 22.8644 5.15686L22.7644 5.15699ZM20.8606 3.24631C21.5459 3.24699 22.0174 3.38731 22.319 3.68894C22.6207 3.99058 22.763 4.46413 22.7644 5.15703L22.8644 5.15683C22.863 4.45359 22.719 3.94751 22.3897 3.61822C22.0604 3.28892 21.5564 3.147 20.8607 3.14631L20.8606 3.24631ZM5.11401 3.24631C10.3629 3.2422 15.6117 3.2422 20.8606 3.24631L20.8606 3.14631C15.6117 3.1422 10.3628 3.1422 5.11394 3.14631L5.11401 3.24631ZM3.24446 5.04885C3.24649 4.40686 3.39701 3.95977 3.69857 3.67212C4.00061 3.38402 4.46409 3.24631 5.11398 3.24631V3.14631C4.45267 3.14631 3.95844 3.28604 3.62955 3.59976C3.30018 3.91393 3.14653 4.39303 3.14446 5.04853L3.24446 5.04885ZM3.24309 21.0007C3.22939 15.6834 3.22802 10.3661 3.24446 5.04884L3.14446 5.04854C3.12801 10.366 3.12939 15.6835 3.14309 21.001L3.24309 21.0007ZM5.04009 22.7676C4.39319 22.7662 3.94834 22.6404 3.66379 22.364C3.37957 22.088 3.24445 21.6511 3.24309 21.0007L3.14309 21.0009C3.14447 21.6618 3.28131 22.1319 3.59411 22.4358C3.90658 22.7393 4.38382 22.8662 5.03988 22.8676L5.04009 22.7676ZM10.7134 22.7694C8.82263 22.77 6.93169 22.7705 5.04007 22.7676L5.03991 22.8676C6.93165 22.8705 8.82268 22.87 10.7135 22.8694L10.7134 22.7694Z" fill="black" mask="url(#path-1-outside-1_49_519)"/>
<path d="M13.4138 8.96841L13.4138 8.9681C12.576 8.91761 11.826 9.04737 11.1718 9.51023C10.7878 9.78179 10.6137 10.105 10.6315 10.4149C10.6494 10.725 10.8599 11.0307 11.2644 11.2658L11.2645 11.2658C11.7616 11.5552 12.3004 11.7234 12.848 11.8728C12.9503 11.9007 13.0529 11.928 13.1556 11.9553C13.6019 12.0738 14.0497 12.1928 14.4783 12.3672L13.4138 8.96841ZM13.4138 8.96841L13.4177 8.96802M13.4138 8.96841L13.4177 8.96802M15.1331 18.6137C15.1907 18.6113 15.2497 18.5901 15.3029 18.5711C15.3147 18.5669 15.3262 18.5627 15.3373 18.5589C15.3373 18.5589 15.3374 18.5589 15.3374 18.5589L15.3293 18.5353L13.8566 20.0691L13.8319 20.0725L13.8566 20.0691C13.7851 19.5453 13.8728 19.1941 14.0894 18.9682C14.3069 18.7415 14.6598 18.6348 15.1331 18.6137ZM15.1331 18.6137L15.132 18.5887L15.1331 18.6137C15.1331 18.6137 15.1331 18.6137 15.1331 18.6137ZM9.43512 17.968L9.4263 17.9914C9.15905 17.8907 8.99196 17.7269 8.90899 17.5249C8.82632 17.3236 8.82843 17.0875 8.89305 16.8436C8.95631 16.6019 9.08994 16.4374 9.26726 16.3473C9.44401 16.2575 9.66129 16.2431 9.89009 16.2954C10.4666 16.4272 11.0333 16.6015 11.5965 16.7796L11.5965 16.7796C12.5955 17.0962 13.6003 17.1587 14.6101 16.8766C14.909 16.7929 15.1761 16.6741 15.3767 16.4904C15.5766 16.3074 15.7119 16.0587 15.7456 15.7118C15.7785 15.3677 15.684 15.1239 15.5164 14.9321C15.3475 14.7389 15.1035 14.5972 14.8344 14.4609L14.8344 14.4609C14.1328 14.105 13.3813 13.8958 12.6294 13.6866C12.5941 13.6768 12.5588 13.6669 12.5235 13.6571L12.5235 13.6571C11.7733 13.4473 11.0437 13.2 10.359 12.8274C9.89194 12.5733 9.51512 12.2605 9.25473 11.8716C8.99419 11.4825 8.85113 11.0186 8.84975 10.464C8.84698 9.32247 9.38686 8.4942 10.3304 7.91345C10.7175 7.67461 11.132 7.45872 11.5932 7.3853M9.43512 17.968L11.5971 7.40999M9.43512 17.968C8.91174 17.7707 8.7898 17.3309 8.91722 16.85L13.6541 20.6689C13.4979 20.8097 13.2676 20.8853 13.0042 20.8853C12.7423 20.8853 12.5078 20.8101 12.3486 20.6705C12.1885 20.5301 12.1068 20.3261 12.1493 20.0752L12.1493 20.0751C12.2608 19.4268 12.1268 19.0361 11.8446 18.788C11.5597 18.5375 11.1189 18.4271 10.6044 18.3531C10.234 18.2998 9.87199 18.1616 9.52014 18.0272C9.48876 18.0152 9.45746 18.0033 9.42624 17.9914L9.43512 17.968ZM11.5932 7.3853L11.5971 7.40999M11.5932 7.3853C11.5932 7.38531 11.5932 7.38531 11.5932 7.38531L11.5971 7.40999M11.5932 7.3853C11.7865 7.35432 11.9096 7.28918 11.98 7.18938C12.0507 7.08922 12.0721 6.94871 12.0491 6.75812M11.5971 7.40999C11.9904 7.34697 12.1205 7.14145 12.0739 6.75508M12.0491 6.75812L12.0739 6.75508M12.0491 6.75812C12.0491 6.75811 12.0491 6.75809 12.0491 6.75807L12.0739 6.75508M12.0491 6.75812C12.016 6.48781 12.0132 6.20015 12.0631 5.93254L12.0631 5.93253C12.1075 5.69494 12.2 5.48762 12.3483 5.34051C12.4972 5.19288 12.7005 5.10778 12.9622 5.11199L12.0739 6.75508M13.4177 8.96802C14.0261 8.90875 14.6266 9.07201 15.241 9.23904C15.3736 9.27509 15.5069 9.31131 15.641 9.34551M13.4177 8.96802L13.8908 5.96926M13.8908 5.96926L13.8908 5.96931C13.9049 6.07091 13.8997 6.17875 13.8898 6.28601C13.8861 6.32577 13.8818 6.36519 13.8775 6.40427C13.8702 6.47183 13.8629 6.53837 13.8591 6.60393C13.8473 6.81001 13.8712 6.98924 14.0292 7.11067L14.0293 7.11069C14.1617 7.21281 14.3395 7.25936 14.5347 7.2906C14.6069 7.30216 14.6807 7.31153 14.755 7.32096C14.7809 7.32424 14.8069 7.32754 14.8328 7.33094C14.933 7.34403 15.0329 7.35862 15.1279 7.38012C15.1863 7.39328 15.2449 7.40593 15.3037 7.41861C15.6223 7.48735 15.9443 7.55684 16.2423 7.71114L16.2424 7.71116C16.4795 7.83458 16.6309 7.99676 16.7002 8.18899C16.7693 8.38102 16.7551 8.59934 16.668 8.83268L16.668 8.83277C16.5819 9.06093 16.4434 9.22026 16.2658 9.30678C16.0883 9.39319 15.8748 9.40552 15.641 9.34551M13.8908 5.96926C13.8519 5.69344 13.7542 5.48056 13.5973 5.33562M13.8908 5.96926L13.5973 5.33562M15.641 9.34551C15.641 9.34551 15.641 9.34551 15.641 9.34551L15.6472 9.32129L15.641 9.34552C15.641 9.34551 15.641 9.34551 15.641 9.34551ZM13.5973 5.33562C13.4404 5.19053 13.227 5.11617 12.9622 5.11199L13.5973 5.33562Z" fill="black" stroke="black" stroke-width="0.05"/>
</svg>
