<svg width="28" height="28" viewBox="0 0 28 28" fill="none" xmlns="http://www.w3.org/2000/svg">
<path d="M3.5 9.625V21C3.5 22.4497 4.67525 23.625 6.125 23.625H21.875C23.3247 23.625 24.5 22.4497 24.5 21V9.625M3.5 9.625V7C3.5 5.55025 4.67525 4.375 6.125 4.375H21.875C23.3247 4.375 24.5 5.55025 24.5 7V9.625M3.5 9.625H24.5M6.125 7H6.13375V7.00875H6.125V7ZM8.75 7H8.75875V7.00875H8.75V7ZM11.375 7H11.3838V7.00875H11.375V7Z" stroke="black" stroke-width="1.5" stroke-linecap="round" stroke-linejoin="round"/>
<path d="M12.7968 12.67C12.842 12.3988 13.0766 12.2 13.3516 12.2H14.6486C14.9236 12.2 15.1582 12.3988 15.2034 12.67L15.3102 13.3105C15.3414 13.4976 15.4663 13.6533 15.6322 13.7452C15.6693 13.7657 15.706 13.7869 15.7422 13.8088C15.9047 13.9069 16.1024 13.9374 16.2802 13.8708L16.8886 13.6429C17.1461 13.5464 17.4356 13.6502 17.5731 13.8884L18.2216 15.0116C18.359 15.2497 18.3042 15.5523 18.0919 15.7271L17.5898 16.1405C17.4435 16.2609 17.371 16.4468 17.3745 16.6362C17.3749 16.6574 17.3751 16.6787 17.3751 16.7C17.3751 16.7213 17.3749 16.7425 17.3745 16.7637C17.371 16.9531 17.4435 17.139 17.5898 17.2594L18.0919 17.6728C18.3042 17.8476 18.359 18.1502 18.2216 18.3884L17.5731 19.5116C17.4356 19.7497 17.1461 19.8536 16.8886 19.7571L16.2802 19.5291C16.1024 19.4625 15.9047 19.4931 15.7422 19.5912C15.706 19.6131 15.6693 19.6343 15.6322 19.6548C15.4663 19.7466 15.3414 19.9024 15.3102 20.0894L15.2034 20.73C15.1582 21.0012 14.9236 21.2 14.6486 21.2H13.3516C13.0766 21.2 12.842 21.0012 12.7968 20.73L12.69 20.0894C12.6588 19.9024 12.5339 19.7466 12.368 19.6548C12.3309 19.6343 12.2942 19.6131 12.258 19.5912C12.0955 19.4931 11.8978 19.4625 11.72 19.5292L11.1116 19.7571C10.8541 19.8536 10.5646 19.7497 10.4271 19.5116L9.77864 18.3884C9.64115 18.1502 9.69598 17.8476 9.90827 17.6729L10.4104 17.2594C10.5567 17.139 10.6292 16.9531 10.6257 16.7637C10.6253 16.7425 10.6251 16.7213 10.6251 16.7C10.6251 16.6787 10.6253 16.6574 10.6257 16.6363C10.6292 16.4468 10.5567 16.2609 10.4104 16.1405L9.90827 15.7271C9.69598 15.5524 9.64115 15.2497 9.77864 15.0116L10.4271 13.8884C10.5646 13.6502 10.8541 13.5464 11.1116 13.6429L11.72 13.8708C11.8978 13.9374 12.0955 13.9069 12.258 13.8088C12.2942 13.7869 12.3309 13.7657 12.368 13.7452C12.5339 13.6533 12.6588 13.4976 12.69 13.3105L12.7968 12.67Z" stroke="black" stroke-width="1.5" stroke-linecap="round" stroke-linejoin="round"/>
<path d="M15.5 16.6999C15.5 17.5284 14.8284 18.1999 14 18.1999C13.1716 18.1999 12.5 17.5284 12.5 16.6999C12.5 15.8715 13.1716 15.1999 14 15.1999C14.8284 15.1999 15.5 15.8715 15.5 16.6999Z" stroke="black" stroke-width="1.5" stroke-linecap="round" stroke-linejoin="round"/>
</svg>
