<svg width="26" height="26" viewBox="0 0 26 26" fill="none" xmlns="http://www.w3.org/2000/svg">
<path d="M12.2929 7.29289C12.4804 7.10536 12.7348 7 13 7C13.2652 7 13.5196 7.10536 13.7071 7.29289C13.8946 7.48043 14 7.73478 14 8V12.879C14.0018 13.0502 13.9596 13.219 13.8775 13.3692C13.7954 13.5195 13.6761 13.6461 13.531 13.737L9.69101 16.137C9.46557 16.2778 9.19343 16.3233 8.93444 16.2635C8.67545 16.2037 8.45084 16.0434 8.31001 15.818C8.16918 15.5926 8.12367 15.3204 8.18349 15.0614C8.24332 14.8024 8.40357 14.5778 8.62901 14.437L12 12.325V8C12 7.73478 12.1054 7.48043 12.2929 7.29289Z" fill="black"/>
<path fill-rule="evenodd" clip-rule="evenodd" d="M6.33316 3.02236C8.30655 1.70379 10.6266 1 13 1C16.1815 1.00344 19.2318 2.26883 21.4815 4.51852C23.7312 6.76821 24.9966 9.81846 25 13C25 15.3734 24.2962 17.6935 22.9776 19.6668C21.6591 21.6402 19.7849 23.1783 17.5922 24.0866C15.3995 24.9948 12.9867 25.2324 10.6589 24.7694C8.33115 24.3064 6.19295 23.1635 4.51472 21.4853C2.83649 19.807 1.6936 17.6689 1.23058 15.3411C0.767559 13.0133 1.0052 10.6005 1.91345 8.4078C2.8217 6.21509 4.35977 4.34094 6.33316 3.02236ZM7.4443 21.3147C9.08879 22.4135 11.0222 23 13 23C15.6513 22.9971 18.1931 21.9426 20.0679 20.0679C21.9426 18.1931 22.9971 15.6513 23 13C23 11.0222 22.4135 9.08879 21.3147 7.4443C20.2159 5.79981 18.6541 4.51808 16.8268 3.7612C14.9996 3.00433 12.9889 2.80629 11.0491 3.19215C9.10929 3.578 7.32746 4.53041 5.92894 5.92893C4.53041 7.32746 3.578 9.10929 3.19215 11.0491C2.8063 12.9889 3.00433 14.9996 3.76121 16.8268C4.51809 18.6541 5.79981 20.2159 7.4443 21.3147Z" fill="black"/>
</svg>
