<svg width="28" height="28" viewBox="0 0 28 28" fill="none" xmlns="http://www.w3.org/2000/svg">
<path d="M20.9785 21.8456C19.3808 19.737 16.8495 18.375 14 18.375C11.1505 18.375 8.61921 19.737 7.02154 21.8456M20.9785 21.8456C23.1391 19.9224 24.5 17.1201 24.5 14C24.5 8.20101 19.799 3.5 14 3.5C8.20101 3.5 3.5 8.20101 3.5 14C3.5 17.1201 4.86092 19.9224 7.02154 21.8456M20.9785 21.8456C19.1234 23.4968 16.6789 24.5 14 24.5C11.3211 24.5 8.87659 23.4968 7.02154 21.8456M17.5 11.375C17.5 13.308 15.933 14.875 14 14.875C12.067 14.875 10.5 13.308 10.5 11.375C10.5 9.442 12.067 7.875 14 7.875C15.933 7.875 17.5 9.442 17.5 11.375Z" stroke="black" stroke-width="1.5" stroke-linecap="round" stroke-linejoin="round"/>
</svg>
